<?xml version="1.0" encoding="UTF-8" standalone="no"?>
<!DOCTYPE svg PUBLIC "-//W3C//DTD SVG 1.1//EN"
 "http://www.w3.org/Graphics/SVG/1.1/DTD/svg11.dtd">
<!-- Generated by graphviz version 2.38.0 (20140413.2041)
 -->
<!-- Title: ClassDiagram Pages: 1 -->
<svg width="917pt" height="416pt"
 viewBox="0.00 0.00 917.00 416.00" xmlns="http://www.w3.org/2000/svg" xmlns:xlink="http://www.w3.org/1999/xlink">
<g id="graph0" class="graph" transform="scale(1 1) rotate(0) translate(4 412)">
<title>ClassDiagram</title>
<polygon fill="white" stroke="none" points="-4,4 -4,-412 913,-412 913,4 -4,4"/>
<!-- IVehicleFactory -->
<g id="node1" class="node"><title>IVehicleFactory</title>
<polygon fill="none" stroke="black" points="192,-121 192,-199 366,-199 366,-121 192,-121"/>
<text text-anchor="middle" x="279" y="-188.6" font-family="Consolas" font-size="8.00">&lt;&lt;interface&gt;&gt;</text>
<text text-anchor="middle" x="279" y="-179.6" font-family="Consolas" font-size="8.00">IVehicleFactory</text>
<polyline fill="none" stroke="black" points="192,-173 366,-173 "/>
<text text-anchor="middle" x="279" y="-162.6" font-family="Consolas" font-size="8.00"> </text>
<polyline fill="none" stroke="black" points="192,-156 366,-156 "/>
<text text-anchor="start" x="200" y="-145.6" font-family="Consolas" font-size="8.00">+ CreateJetPowered() : Vehicle</text>
<text text-anchor="start" x="200" y="-136.6" font-family="Consolas" font-size="8.00">+ CreatePeddlePowered() : Vehicle</text>
<text text-anchor="start" x="200" y="-127.6" font-family="Consolas" font-size="8.00">+ CreateGasolinePowered() : Vehicle</text>
</g>
<!-- VehicleBuilder -->
<g id="node2" class="node"><title>VehicleBuilder</title>
<polygon fill="none" stroke="black" points="395,-116.5 395,-203.5 547,-203.5 547,-116.5 395,-116.5"/>
<text text-anchor="middle" x="471" y="-193.1" font-family="Consolas" font-size="8.00">VehicleBuilder</text>
<polyline fill="none" stroke="black" points="395,-186.5 547,-186.5 "/>
<text text-anchor="start" x="403" y="-176.1" font-family="Consolas" font-size="8.00">&#45; wheels : int?</text>
<text text-anchor="start" x="403" y="-167.1" font-family="Consolas" font-size="8.00">&#45; vehicleColor : Color?</text>
<text text-anchor="start" x="403" y="-158.1" font-family="Consolas" font-size="8.00">&#45; canFly : bool</text>
<polyline fill="none" stroke="black" points="395,-151.5 547,-151.5 "/>
<text text-anchor="start" x="403" y="-141.1" font-family="Consolas" font-size="8.00">+ Build() : Vehicle</text>
<text text-anchor="start" x="403" y="-132.1" font-family="Consolas" font-size="8.00">+ AddWheels() : VehicleBuilder</text>
<text text-anchor="start" x="403" y="-123.1" font-family="Consolas" font-size="8.00">+ WithColor() : VehicleBuilder</text>
</g>
<!-- Vehicle -->
<g id="node9" class="node"><title>Vehicle</title>
<polygon fill="none" stroke="black" points="532,-0.5 532,-78.5 652,-78.5 652,-0.5 532,-0.5"/>
<text text-anchor="middle" x="592" y="-68.1" font-family="Consolas" font-size="8.00">Vehicle</text>
<polyline fill="none" stroke="black" points="532,-61.5 652,-61.5 "/>
<text text-anchor="start" x="540" y="-51.1" font-family="Consolas" font-size="8.00">&#45; color : Color</text>
<text text-anchor="start" x="540" y="-42.1" font-family="Consolas" font-size="8.00">&#45; NumberOfWheels : int</text>
<text text-anchor="start" x="540" y="-33.1" font-family="Consolas" font-size="8.00">&#45; Description : string?</text>
<text text-anchor="start" x="540" y="-24.1" font-family="Consolas" font-size="8.00">&#45; canFly : bool</text>
<polyline fill="none" stroke="black" points="532,-17.5 652,-17.5 "/>
<text text-anchor="start" x="540" y="-7.1" font-family="Consolas" font-size="8.00">&#45; Vehicle() : </text>
</g>
<!-- VehicleBuilder&#45;&gt;Vehicle -->
<g id="edge10" class="edge"><title>VehicleBuilder:s&#45;&gt;Vehicle</title>
<path fill="none" stroke="black" d="M471,-116C471,-87.538 495.395,-69.4139 522.278,-58.0822"/>
<polygon fill="black" stroke="black" points="523.807,-61.2428 531.854,-54.3516 521.266,-54.7203 523.807,-61.2428"/>
</g>
<!-- AirplaneFactory -->
<g id="node3" class="node"><title>AirplaneFactory</title>
<polygon fill="none" stroke="black" points="384,-249.5 384,-318.5 558,-318.5 558,-249.5 384,-249.5"/>
<text text-anchor="middle" x="471" y="-308.1" font-family="Consolas" font-size="8.00">AirplaneFactory</text>
<polyline fill="none" stroke="black" points="384,-301.5 558,-301.5 "/>
<text text-anchor="middle" x="471" y="-291.1" font-family="Consolas" font-size="8.00"> </text>
<polyline fill="none" stroke="black" points="384,-284.5 558,-284.5 "/>
<text text-anchor="start" x="392" y="-274.1" font-family="Consolas" font-size="8.00">+ CreateGasolinePowered() : Vehicle</text>
<text text-anchor="start" x="392" y="-265.1" font-family="Consolas" font-size="8.00">+ CreateJetPowered() : Vehicle</text>
<text text-anchor="start" x="392" y="-256.1" font-family="Consolas" font-size="8.00">+ CreatePeddlePowered() : Vehicle</text>
</g>
<!-- AirplaneFactory&#45;&gt;IVehicleFactory -->
<g id="edge2" class="edge"><title>AirplaneFactory:s&#45;&gt;IVehicleFactory</title>
<path fill="none" stroke="black" stroke-dasharray="5,2" d="M471,-249C471,-243.144 423.176,-221.214 375.264,-200.713"/>
<polygon fill="none" stroke="black" points="376.583,-197.471 366.012,-196.771 373.84,-203.911 376.583,-197.471"/>
</g>
<!-- AirplaneFactory&#45;&gt;VehicleBuilder -->
<g id="edge1" class="edge"><title>AirplaneFactory&#45;&gt;VehicleBuilder</title>
<path fill="none" stroke="black" d="M471,-249.34C471,-238.32 471,-225.798 471,-213.719"/>
<polygon fill="black" stroke="black" points="474.5,-213.718 471,-203.718 467.5,-213.718 474.5,-213.718"/>
</g>
<!-- BicycleFactory -->
<g id="node4" class="node"><title>BicycleFactory</title>
<polygon fill="none" stroke="black" points="192,-249.5 192,-318.5 366,-318.5 366,-249.5 192,-249.5"/>
<text text-anchor="middle" x="279" y="-308.1" font-family="Consolas" font-size="8.00">BicycleFactory</text>
<polyline fill="none" stroke="black" points="192,-301.5 366,-301.5 "/>
<text text-anchor="middle" x="279" y="-291.1" font-family="Consolas" font-size="8.00"> </text>
<polyline fill="none" stroke="black" points="192,-284.5 366,-284.5 "/>
<text text-anchor="start" x="200" y="-274.1" font-family="Consolas" font-size="8.00">+ CreateGasolinePowered() : Vehicle</text>
<text text-anchor="start" x="200" y="-265.1" font-family="Consolas" font-size="8.00">+ CreateJetPowered() : Vehicle</text>
<text text-anchor="start" x="200" y="-256.1" font-family="Consolas" font-size="8.00">+ CreatePeddlePowered() : Vehicle</text>
</g>
<!-- BicycleFactory&#45;&gt;IVehicleFactory -->
<g id="edge4" class="edge"><title>BicycleFactory:s&#45;&gt;IVehicleFactory</title>
<path fill="none" stroke="black" stroke-dasharray="5,2" d="M279,-249C279,-236.101 279,-222.139 279,-209.217"/>
<polygon fill="none" stroke="black" points="282.5,-209.118 279,-199.118 275.5,-209.118 282.5,-209.118"/>
</g>
<!-- BicycleFactory&#45;&gt;VehicleBuilder -->
<g id="edge3" class="edge"><title>BicycleFactory&#45;&gt;VehicleBuilder</title>
<path fill="none" stroke="black" d="M334.475,-249.396C344.341,-243.324 354.498,-237.013 364,-231 375.062,-224 386.705,-216.511 398.074,-209.13"/>
<polygon fill="black" stroke="black" points="400.229,-211.904 406.701,-203.516 396.41,-206.036 400.229,-211.904"/>
</g>
<!-- GasolineEngine -->
<g id="node5" class="node"><title>GasolineEngine</title>
<polygon fill="none" stroke="black" points="405,-356.5 405,-407.5 561,-407.5 561,-356.5 405,-356.5"/>
<text text-anchor="middle" x="483" y="-397.1" font-family="Consolas" font-size="8.00">GasolineEngine</text>
<polyline fill="none" stroke="black" points="405,-390.5 561,-390.5 "/>
<text text-anchor="start" x="413" y="-380.1" font-family="Consolas" font-size="8.00">&#45; Description : override string</text>
<polyline fill="none" stroke="black" points="405,-373.5 561,-373.5 "/>
<text text-anchor="middle" x="483" y="-363.1" font-family="Consolas" font-size="8.00"> </text>
</g>
<!-- PropulsionSystem -->
<g id="node10" class="node"><title>PropulsionSystem</title>
<polygon fill="none" stroke="black" points="576.5,-249.5 576.5,-318.5 737.5,-318.5 737.5,-249.5 576.5,-249.5"/>
<text text-anchor="middle" x="657" y="-308.1" font-family="Consolas" font-size="8.00">PropulsionSystem</text>
<polyline fill="none" stroke="black" points="576.5,-301.5 737.5,-301.5 "/>
<text text-anchor="start" x="584.5" y="-291.1" font-family="Consolas" font-size="8.00">&#45; CanFly : bool</text>
<text text-anchor="start" x="584.5" y="-282.1" font-family="Consolas" font-size="8.00">&#45; fuelEfficiencyPercent : double</text>
<text text-anchor="start" x="584.5" y="-273.1" font-family="Consolas" font-size="8.00">&#45; Description : abstract string</text>
<polyline fill="none" stroke="black" points="576.5,-266.5 737.5,-266.5 "/>
<text text-anchor="start" x="584.5" y="-256.1" font-family="Consolas" font-size="8.00">+ ToString() : override string</text>
</g>
<!-- GasolineEngine&#45;&gt;PropulsionSystem -->
<g id="edge5" class="edge"><title>GasolineEngine:s&#45;&gt;PropulsionSystem</title>
<path fill="none" stroke="black" d="M483,-356C483,-353.45 524.533,-336.444 567.016,-319.716"/>
<polygon fill="none" stroke="black" points="568.338,-322.957 576.367,-316.044 565.78,-316.442 568.338,-322.957"/>
</g>
<!-- JetEngine -->
<g id="node6" class="node"><title>JetEngine</title>
<polygon fill="none" stroke="black" points="579,-356.5 579,-407.5 735,-407.5 735,-356.5 579,-356.5"/>
<text text-anchor="middle" x="657" y="-397.1" font-family="Consolas" font-size="8.00">JetEngine</text>
<polyline fill="none" stroke="black" points="579,-390.5 735,-390.5 "/>
<text text-anchor="start" x="587" y="-380.1" font-family="Consolas" font-size="8.00">&#45; Description : override string</text>
<polyline fill="none" stroke="black" points="579,-373.5 735,-373.5 "/>
<text text-anchor="middle" x="657" y="-363.1" font-family="Consolas" font-size="8.00"> </text>
</g>
<!-- JetEngine&#45;&gt;PropulsionSystem -->
<g id="edge6" class="edge"><title>JetEngine:s&#45;&gt;PropulsionSystem</title>
<path fill="none" stroke="black" d="M657,-356C657,-347.229 657,-337.849 657,-328.875"/>
<polygon fill="none" stroke="black" points="660.5,-328.589 657,-318.589 653.5,-328.589 660.5,-328.589"/>
</g>
<!-- LeaseCarFactory -->
<g id="node7" class="node"><title>LeaseCarFactory</title>
<polygon fill="none" stroke="black" points="0,-249.5 0,-318.5 174,-318.5 174,-249.5 0,-249.5"/>
<text text-anchor="middle" x="87" y="-308.1" font-family="Consolas" font-size="8.00">LeaseCarFactory</text>
<polyline fill="none" stroke="black" points="0,-301.5 174,-301.5 "/>
<text text-anchor="middle" x="87" y="-291.1" font-family="Consolas" font-size="8.00"> </text>
<polyline fill="none" stroke="black" points="0,-284.5 174,-284.5 "/>
<text text-anchor="start" x="8" y="-274.1" font-family="Consolas" font-size="8.00">+ CreateGasolinePowered() : Vehicle</text>
<text text-anchor="start" x="8" y="-265.1" font-family="Consolas" font-size="8.00">+ CreateJetPowered() : Vehicle</text>
<text text-anchor="start" x="8" y="-256.1" font-family="Consolas" font-size="8.00">+ CreatePeddlePowered() : Vehicle</text>
</g>
<!-- LeaseCarFactory&#45;&gt;IVehicleFactory -->
<g id="edge8" class="edge"><title>LeaseCarFactory:s&#45;&gt;IVehicleFactory</title>
<path fill="none" stroke="black" stroke-dasharray="5,2" d="M87,-249C87,-202.346 134.427,-180.329 182.139,-169.984"/>
<polygon fill="none" stroke="black" points="182.872,-173.407 191.988,-168.008 181.495,-166.544 182.872,-173.407"/>
</g>
<!-- LeaseCarFactory&#45;&gt;VehicleBuilder -->
<g id="edge7" class="edge"><title>LeaseCarFactory&#45;&gt;VehicleBuilder</title>
<path fill="none" stroke="black" d="M174.244,-251.642C177.191,-250.73 180.116,-249.846 183,-249 267.103,-224.332 291.961,-232.042 375,-204 378.346,-202.87 381.733,-201.666 385.138,-200.404"/>
<polygon fill="black" stroke="black" points="386.674,-203.564 394.756,-196.714 384.166,-197.029 386.674,-203.564"/>
</g>
<!-- Peddles -->
<g id="node8" class="node"><title>Peddles</title>
<polygon fill="none" stroke="black" points="753,-356.5 753,-407.5 909,-407.5 909,-356.5 753,-356.5"/>
<text text-anchor="middle" x="831" y="-397.1" font-family="Consolas" font-size="8.00">Peddles</text>
<polyline fill="none" stroke="black" points="753,-390.5 909,-390.5 "/>
<text text-anchor="start" x="761" y="-380.1" font-family="Consolas" font-size="8.00">&#45; Description : override string</text>
<polyline fill="none" stroke="black" points="753,-373.5 909,-373.5 "/>
<text text-anchor="middle" x="831" y="-363.1" font-family="Consolas" font-size="8.00"> </text>
</g>
<!-- Peddles&#45;&gt;PropulsionSystem -->
<g id="edge9" class="edge"><title>Peddles:s&#45;&gt;PropulsionSystem</title>
<path fill="none" stroke="black" d="M831,-356C831,-315.364 789.814,-297.463 747.518,-289.793"/>
<polygon fill="none" stroke="black" points="748.066,-286.336 737.633,-288.181 746.939,-293.245 748.066,-286.336"/>
</g>
<!-- PropulsionSystem&#45;&gt;VehicleBuilder -->
<g id="edge12" class="edge"><title>PropulsionSystem&#45;&gt;VehicleBuilder</title>
<path fill="none" stroke="black" d="M581.3,-249.437C570.526,-243.741 559.791,-237.537 550,-231 541.253,-225.159 532.456,-218.419 524.073,-211.475"/>
<polygon fill="none" stroke="black" points="523.945,-211.366 516.783,-210.522 514.807,-203.587 521.969,-204.431 523.945,-211.366"/>
<text text-anchor="middle" x="588.5" y="-224.6" font-family="Consolas" font-size="8.00">propulsionSystems</text>
</g>
<!-- PropulsionSystem&#45;&gt;Vehicle -->
<g id="edge11" class="edge"><title>PropulsionSystem&#45;&gt;Vehicle</title>
<path fill="none" stroke="black" d="M647.962,-249.281C636.923,-208.098 618.152,-138.066 605.423,-90.5788"/>
<polygon fill="none" stroke="black" points="605.353,-90.315 599.935,-85.5552 602.246,-78.7242 607.663,-83.484 605.353,-90.315"/>
<text text-anchor="middle" x="674.5" y="-158.1" font-family="Consolas" font-size="8.00">PropulsionSystems</text>
</g>
</g>
</svg>
