<?xml version="1.0" encoding="UTF-8" standalone="no"?>
<!DOCTYPE svg PUBLIC "-//W3C//DTD SVG 1.1//EN"
 "http://www.w3.org/Graphics/SVG/1.1/DTD/svg11.dtd">
<!-- Generated by graphviz version 2.38.0 (20140413.2041)
 -->
<!-- Title: ClassDiagram Pages: 1 -->
<svg width="402pt" height="245pt"
 viewBox="0.00 0.00 402.00 245.00" xmlns="http://www.w3.org/2000/svg" xmlns:xlink="http://www.w3.org/1999/xlink">
<g id="graph0" class="graph" transform="scale(1 1) rotate(0) translate(4 241)">
<title>ClassDiagram</title>
<polygon fill="white" stroke="none" points="-4,4 -4,-241 398,-241 398,4 -4,4"/>
<!-- MargheritaPizza -->
<g id="node1" class="node"><title>MargheritaPizza</title>
<polygon fill="none" stroke="black" points="34,-185.5 34,-236.5 118,-236.5 118,-185.5 34,-185.5"/>
<text text-anchor="middle" x="76" y="-226.1" font-family="Consolas" font-size="8.00">MargheritaPizza</text>
<polyline fill="none" stroke="black" points="34,-219.5 118,-219.5 "/>
<text text-anchor="middle" x="76" y="-209.1" font-family="Consolas" font-size="8.00"> </text>
<polyline fill="none" stroke="black" points="34,-202.5 118,-202.5 "/>
<text text-anchor="middle" x="76" y="-192.1" font-family="Consolas" font-size="8.00"> </text>
</g>
<!-- Pizza -->
<g id="node2" class="node"><title>Pizza</title>
<polygon fill="none" stroke="black" points="170,-97.5 170,-148.5 224,-148.5 224,-97.5 170,-97.5"/>
<text text-anchor="middle" x="197" y="-138.1" font-family="Consolas" font-size="8.00">Pizza</text>
<polyline fill="none" stroke="black" points="170,-131.5 224,-131.5 "/>
<text text-anchor="middle" x="197" y="-121.1" font-family="Consolas" font-size="8.00"> </text>
<polyline fill="none" stroke="black" points="170,-114.5 224,-114.5 "/>
<text text-anchor="middle" x="197" y="-104.1" font-family="Consolas" font-size="8.00"> </text>
</g>
<!-- MargheritaPizza&#45;&gt;Pizza -->
<g id="edge1" class="edge"><title>MargheritaPizza:s&#45;&gt;Pizza</title>
<path fill="none" stroke="black" d="M76,-185C76,-143.974 125.071,-168.806 161,-149 161.092,-148.949 161.183,-148.899 161.275,-148.848"/>
<polygon fill="none" stroke="black" points="163.073,-151.851 169.857,-143.713 159.479,-145.844 163.073,-151.851"/>
</g>
<!-- PizzaMargheritaFactory -->
<g id="node3" class="node"><title>PizzaMargheritaFactory</title>
<polygon fill="none" stroke="black" points="0,-97.5 0,-148.5 152,-148.5 152,-97.5 0,-97.5"/>
<text text-anchor="middle" x="76" y="-138.1" font-family="Consolas" font-size="8.00">PizzaMargheritaFactory</text>
<polyline fill="none" stroke="black" points="0,-131.5 152,-131.5 "/>
<text text-anchor="middle" x="76" y="-121.1" font-family="Consolas" font-size="8.00"> </text>
<polyline fill="none" stroke="black" points="0,-114.5 152,-114.5 "/>
<text text-anchor="start" x="8" y="-104.1" font-family="Consolas" font-size="8.00">+ CookPizza() : override Pizza</text>
</g>
<!-- MargheritaPizza&#45;&gt;PizzaMargheritaFactory -->
<g id="edge2" class="edge"><title>MargheritaPizza&#45;&gt;PizzaMargheritaFactory</title>
<path fill="none" stroke="black" d="M76,-185.125C76,-177.483 76,-168.905 76,-160.647"/>
<polygon fill="none" stroke="black" points="76.0001,-160.522 72,-154.522 76,-148.522 80,-154.522 76.0001,-160.522"/>
</g>
<!-- PizzaMethodFactory -->
<g id="node4" class="node"><title>PizzaMethodFactory</title>
<polygon fill="none" stroke="black" points="121,-0.5 121,-60.5 273,-60.5 273,-0.5 121,-0.5"/>
<text text-anchor="middle" x="197" y="-50.1" font-family="Consolas" font-size="8.00">PizzaMethodFactory</text>
<polyline fill="none" stroke="black" points="121,-43.5 273,-43.5 "/>
<text text-anchor="middle" x="197" y="-33.1" font-family="Consolas" font-size="8.00"> </text>
<polyline fill="none" stroke="black" points="121,-26.5 273,-26.5 "/>
<text text-anchor="start" x="129" y="-16.1" font-family="Consolas" font-size="8.00">+ CreatePizza() : Pizza</text>
<text text-anchor="start" x="129" y="-7.1" font-family="Consolas" font-size="8.00">+ CookPizza() : abstract Pizza</text>
</g>
<!-- PizzaMargheritaFactory&#45;&gt;PizzaMethodFactory -->
<g id="edge3" class="edge"><title>PizzaMargheritaFactory:s&#45;&gt;PizzaMethodFactory</title>
<path fill="none" stroke="black" d="M76,-97C76,-75.1459 91.4538,-60.5466 111.316,-50.8078"/>
<polygon fill="none" stroke="black" points="112.973,-53.9024 120.712,-46.6666 110.15,-47.4969 112.973,-53.9024"/>
</g>
<!-- PizzaSalamiFactory -->
<g id="node5" class="node"><title>PizzaSalamiFactory</title>
<polygon fill="none" stroke="black" points="242,-97.5 242,-148.5 394,-148.5 394,-97.5 242,-97.5"/>
<text text-anchor="middle" x="318" y="-138.1" font-family="Consolas" font-size="8.00">PizzaSalamiFactory</text>
<polyline fill="none" stroke="black" points="242,-131.5 394,-131.5 "/>
<text text-anchor="middle" x="318" y="-121.1" font-family="Consolas" font-size="8.00"> </text>
<polyline fill="none" stroke="black" points="242,-114.5 394,-114.5 "/>
<text text-anchor="start" x="250" y="-104.1" font-family="Consolas" font-size="8.00">+ CookPizza() : override Pizza</text>
</g>
<!-- PizzaSalamiFactory&#45;&gt;PizzaMethodFactory -->
<g id="edge6" class="edge"><title>PizzaSalamiFactory:s&#45;&gt;PizzaMethodFactory</title>
<path fill="none" stroke="black" d="M318,-97C318,-75.1459 302.546,-60.5466 282.684,-50.8078"/>
<polygon fill="none" stroke="black" points="283.85,-47.4969 273.288,-46.6666 281.027,-53.9024 283.85,-47.4969"/>
</g>
<!-- SalamiPizza -->
<g id="node6" class="node"><title>SalamiPizza</title>
<polygon fill="none" stroke="black" points="280,-185.5 280,-236.5 346,-236.5 346,-185.5 280,-185.5"/>
<text text-anchor="middle" x="313" y="-226.1" font-family="Consolas" font-size="8.00">SalamiPizza</text>
<polyline fill="none" stroke="black" points="280,-219.5 346,-219.5 "/>
<text text-anchor="middle" x="313" y="-209.1" font-family="Consolas" font-size="8.00"> </text>
<polyline fill="none" stroke="black" points="280,-202.5 346,-202.5 "/>
<text text-anchor="middle" x="313" y="-192.1" font-family="Consolas" font-size="8.00"> </text>
</g>
<!-- SalamiPizza&#45;&gt;Pizza -->
<g id="edge7" class="edge"><title>SalamiPizza:s&#45;&gt;Pizza</title>
<path fill="none" stroke="black" d="M313,-185C313,-146.01 266.934,-168.201 233,-149 232.909,-148.948 232.818,-148.897 232.727,-148.845"/>
<polygon fill="none" stroke="black" points="234.543,-145.853 224.18,-143.646 230.905,-151.833 234.543,-145.853"/>
</g>
<!-- SalamiPizza&#45;&gt;PizzaSalamiFactory -->
<g id="edge5" class="edge"><title>SalamiPizza&#45;&gt;PizzaSalamiFactory</title>
<path fill="none" stroke="black" d="M314.446,-185.125C314.891,-177.483 315.389,-168.905 315.869,-160.647"/>
<polygon fill="none" stroke="black" points="315.878,-160.502 312.233,-154.28 316.574,-148.522 320.219,-154.744 315.878,-160.502"/>
</g>
<!-- SimplePizzaFactory -->
<g id="node7" class="node"><title>SimplePizzaFactory</title>
<polygon fill="none" stroke="black" points="137,-185.5 137,-236.5 257,-236.5 257,-185.5 137,-185.5"/>
<text text-anchor="middle" x="197" y="-226.1" font-family="Consolas" font-size="8.00">SimplePizzaFactory</text>
<polyline fill="none" stroke="black" points="137,-219.5 257,-219.5 "/>
<text text-anchor="middle" x="197" y="-209.1" font-family="Consolas" font-size="8.00"> </text>
<polyline fill="none" stroke="black" points="137,-202.5 257,-202.5 "/>
<text text-anchor="start" x="145" y="-192.1" font-family="Consolas" font-size="8.00">+ CreatePizza() : Pizza</text>
</g>
<!-- SimplePizzaFactory&#45;&gt;Pizza -->
<g id="edge4" class="edge"><title>SimplePizzaFactory&#45;&gt;Pizza</title>
<path fill="none" stroke="black" d="M197,-185.125C197,-176.853 197,-167.486 197,-158.614"/>
<polygon fill="none" stroke="black" points="200.5,-158.522 197,-148.522 193.5,-158.522 200.5,-158.522"/>
</g>
</g>
</svg>
