<?xml version="1.0" encoding="UTF-8" standalone="no"?>
<!DOCTYPE svg PUBLIC "-//W3C//DTD SVG 1.1//EN"
 "http://www.w3.org/Graphics/SVG/1.1/DTD/svg11.dtd">
<!-- Generated by graphviz version 2.38.0 (20140413.2041)
 -->
<!-- Title: Factory.PizzaMargheritaFactory Pages: 1 -->
<svg width="164pt" height="171pt"
 viewBox="0.00 0.00 164.00 171.00" xmlns="http://www.w3.org/2000/svg" xmlns:xlink="http://www.w3.org/1999/xlink">
<g id="graph0" class="graph" transform="scale(1 1) rotate(0) translate(4 167)">
<title>Factory.PizzaMargheritaFactory</title>
<polygon fill="white" stroke="none" points="-4,4 -4,-167 160,-167 160,4 -4,4"/>
<!-- Node1 -->
<g id="node1" class="node"><title>Node1</title>
<g id="a_node1"><a xlink:title=" ">
<polygon fill="#bfbfbf" stroke="black" points="0,-0.5 0,-57.5 156,-57.5 156,-0.5 0,-0.5"/>
<text text-anchor="middle" x="78" y="-45.5" font-family="Helvetica,sans-Serif" font-size="10.00">Factory.PizzaMargheritaFactory</text>
<polyline fill="none" stroke="black" points="0,-38.5 156,-38.5 "/>
<text text-anchor="start" x="8" y="-26.5" font-family="Helvetica,sans-Serif" font-size="10.00">&#45; _ignored</text>
<polyline fill="none" stroke="black" points="0,-19.5 156,-19.5 "/>
<text text-anchor="start" x="8" y="-7.5" font-family="Helvetica,sans-Serif" font-size="10.00">+ CookPizza()</text>
</a>
</g>
</g>
<!-- Node2 -->
<g id="node2" class="node"><title>Node2</title>
<g id="a_node2"><a xlink:href="class_factory_1_1_pizza_method_factory.html" target="_top" xlink:title=" ">
<polygon fill="white" stroke="black" points="24.5,-94.5 24.5,-162.5 131.5,-162.5 131.5,-94.5 24.5,-94.5"/>
<text text-anchor="middle" x="78" y="-150.5" font-family="Helvetica,sans-Serif" font-size="10.00">PizzaMethodFactory</text>
<polyline fill="none" stroke="black" points="24.5,-143.5 131.5,-143.5 "/>
<text text-anchor="middle" x="78" y="-131.5" font-family="Helvetica,sans-Serif" font-size="10.00"> </text>
<polyline fill="none" stroke="black" points="24.5,-124.5 131.5,-124.5 "/>
<text text-anchor="start" x="32.5" y="-112.5" font-family="Helvetica,sans-Serif" font-size="10.00">+ CreatePizza()</text>
<text text-anchor="start" x="32.5" y="-101.5" font-family="Helvetica,sans-Serif" font-size="10.00">+ CookPizza()</text>
</a>
</g>
</g>
<!-- Node2&#45;&gt;Node1 -->
<g id="edge1" class="edge"><title>Node2&#45;&gt;Node1</title>
<path fill="none" stroke="midnightblue" d="M78,-84.4538C78,-75.4036 78,-66.0876 78,-57.7765"/>
<polygon fill="none" stroke="midnightblue" points="74.5001,-84.4909 78,-94.4909 81.5001,-84.491 74.5001,-84.4909"/>
</g>
</g>
</svg>
