<?xml version="1.0" encoding="UTF-8" standalone="no"?>
<!DOCTYPE svg PUBLIC "-//W3C//DTD SVG 1.1//EN"
 "http://www.w3.org/Graphics/SVG/1.1/DTD/svg11.dtd">
<!-- Generated by graphviz version 2.38.0 (20140413.2041)
 -->
<!-- Title: Factory.Abstract.AirplaneFactory.CreateJetPowered Pages: 1 -->
<svg width="320pt" height="88pt"
 viewBox="0.00 0.00 320.00 88.00" xmlns="http://www.w3.org/2000/svg" xmlns:xlink="http://www.w3.org/1999/xlink">
<g id="graph0" class="graph" transform="scale(1 1) rotate(0) translate(4 84)">
<title>Factory.Abstract.AirplaneFactory.CreateJetPowered</title>
<polygon fill="white" stroke="none" points="-4,4 -4,-84 316,-84 316,4 -4,4"/>
<!-- Node1 -->
<g id="node1" class="node"><title>Node1</title>
<g id="a_node1"><a xlink:title=" ">
<polygon fill="#bfbfbf" stroke="black" points="0,-24.5 0,-54.5 131,-54.5 131,-24.5 0,-24.5"/>
<text text-anchor="start" x="8" y="-42.5" font-family="Helvetica,sans-Serif" font-size="10.00">Factory.Abstract.Airplane</text>
<text text-anchor="middle" x="65.5" y="-31.5" font-family="Helvetica,sans-Serif" font-size="10.00">Factory.CreateJetPowered</text>
</a>
</g>
</g>
<!-- Node2 -->
<g id="node2" class="node"><title>Node2</title>
<g id="a_node2"><a xlink:href="class_products_1_1_scifi_vehicle_1_1_vehicle_builder.html#af78c4c17bc40c02fba320f0bebac48d6" target="_top" xlink:title=" ">
<polygon fill="white" stroke="black" points="167,-49.5 167,-79.5 312,-79.5 312,-49.5 167,-49.5"/>
<text text-anchor="start" x="175" y="-67.5" font-family="Helvetica,sans-Serif" font-size="10.00">Products.ScifiVehicle.Vehicle</text>
<text text-anchor="middle" x="239.5" y="-56.5" font-family="Helvetica,sans-Serif" font-size="10.00">Builder.AddWheels</text>
</a>
</g>
</g>
<!-- Node1&#45;&gt;Node2 -->
<g id="edge1" class="edge"><title>Node1&#45;&gt;Node2</title>
<path fill="none" stroke="midnightblue" d="M131.036,-48.8802C139.463,-50.1051 148.184,-51.3727 156.846,-52.6317"/>
<polygon fill="midnightblue" stroke="midnightblue" points="156.567,-56.1278 166.966,-54.1027 157.574,-49.2006 156.567,-56.1278"/>
</g>
<!-- Node3 -->
<g id="node3" class="node"><title>Node3</title>
<g id="a_node3"><a xlink:href="class_products_1_1_scifi_vehicle_1_1_vehicle_builder.html#a5e397f0b77c789f568fe9a0855b03cfa" target="_top" xlink:title=" ">
<polygon fill="white" stroke="black" points="167,-0.5 167,-30.5 312,-30.5 312,-0.5 167,-0.5"/>
<text text-anchor="start" x="175" y="-18.5" font-family="Helvetica,sans-Serif" font-size="10.00">Products.ScifiVehicle.Vehicle</text>
<text text-anchor="middle" x="239.5" y="-7.5" font-family="Helvetica,sans-Serif" font-size="10.00">Builder.WithColor</text>
</a>
</g>
</g>
<!-- Node1&#45;&gt;Node3 -->
<g id="edge2" class="edge"><title>Node1&#45;&gt;Node3</title>
<path fill="none" stroke="midnightblue" d="M131.036,-30.495C139.463,-29.3191 148.184,-28.1022 156.846,-26.8936"/>
<polygon fill="midnightblue" stroke="midnightblue" points="157.546,-30.3299 166.966,-25.4815 156.578,-23.3971 157.546,-30.3299"/>
</g>
</g>
</svg>
