<?xml version="1.0" encoding="UTF-8" standalone="no"?>
<!DOCTYPE svg PUBLIC "-//W3C//DTD SVG 1.1//EN"
 "http://www.w3.org/Graphics/SVG/1.1/DTD/svg11.dtd">
<!-- Generated by graphviz version 2.38.0 (20140413.2041)
 -->
<!-- Title: Factory.Abstract.FlyingCarFactory.CreateJetPowered Pages: 1 -->
<svg width="323pt" height="88pt"
 viewBox="0.00 0.00 323.00 88.00" xmlns="http://www.w3.org/2000/svg" xmlns:xlink="http://www.w3.org/1999/xlink">
<g id="graph0" class="graph" transform="scale(1 1) rotate(0) translate(4 84)">
<title>Factory.Abstract.FlyingCarFactory.CreateJetPowered</title>
<polygon fill="white" stroke="none" points="-4,4 -4,-84 319,-84 319,4 -4,4"/>
<!-- Node1 -->
<g id="node1" class="node"><title>Node1</title>
<g id="a_node1"><a xlink:title="Jet engines are not profitable in lease due to frequent crashes, so we just use a gasoline engine ins...">
<polygon fill="#bfbfbf" stroke="black" points="0,-24.5 0,-54.5 134,-54.5 134,-24.5 0,-24.5"/>
<text text-anchor="start" x="8" y="-42.5" font-family="Helvetica,sans-Serif" font-size="10.00">Factory.Abstract.FlyingCar</text>
<text text-anchor="middle" x="67" y="-31.5" font-family="Helvetica,sans-Serif" font-size="10.00">Factory.CreateJetPowered</text>
</a>
</g>
</g>
<!-- Node2 -->
<g id="node2" class="node"><title>Node2</title>
<g id="a_node2"><a xlink:href="class_products_1_1_scifi_vehicle_1_1_vehicle_builder.html#af78c4c17bc40c02fba320f0bebac48d6" target="_top" xlink:title=" ">
<polygon fill="white" stroke="black" points="170,-49.5 170,-79.5 315,-79.5 315,-49.5 170,-49.5"/>
<text text-anchor="start" x="178" y="-67.5" font-family="Helvetica,sans-Serif" font-size="10.00">Products.ScifiVehicle.Vehicle</text>
<text text-anchor="middle" x="242.5" y="-56.5" font-family="Helvetica,sans-Serif" font-size="10.00">Builder.AddWheels</text>
</a>
</g>
</g>
<!-- Node1&#45;&gt;Node2 -->
<g id="edge1" class="edge"><title>Node1&#45;&gt;Node2</title>
<path fill="none" stroke="midnightblue" d="M134.088,-49.0227C142.485,-50.2327 151.157,-51.4822 159.762,-52.7222"/>
<polygon fill="midnightblue" stroke="midnightblue" points="159.417,-56.2085 169.814,-54.1706 160.415,-49.2801 159.417,-56.2085"/>
</g>
<!-- Node3 -->
<g id="node3" class="node"><title>Node3</title>
<g id="a_node3"><a xlink:href="class_products_1_1_scifi_vehicle_1_1_vehicle_builder.html#a5e397f0b77c789f568fe9a0855b03cfa" target="_top" xlink:title=" ">
<polygon fill="white" stroke="black" points="170,-0.5 170,-30.5 315,-30.5 315,-0.5 170,-0.5"/>
<text text-anchor="start" x="178" y="-18.5" font-family="Helvetica,sans-Serif" font-size="10.00">Products.ScifiVehicle.Vehicle</text>
<text text-anchor="middle" x="242.5" y="-7.5" font-family="Helvetica,sans-Serif" font-size="10.00">Builder.WithColor</text>
</a>
</g>
</g>
<!-- Node1&#45;&gt;Node3 -->
<g id="edge2" class="edge"><title>Node1&#45;&gt;Node3</title>
<path fill="none" stroke="midnightblue" d="M134.088,-30.3582C142.485,-29.1966 151.157,-27.9971 159.762,-26.8067"/>
<polygon fill="midnightblue" stroke="midnightblue" points="160.388,-30.2536 169.814,-25.4163 159.428,-23.3196 160.388,-30.2536"/>
</g>
</g>
</svg>
