<?xml version="1.0" encoding="UTF-8" standalone="no"?>
<!DOCTYPE svg PUBLIC "-//W3C//DTD SVG 1.1//EN"
 "http://www.w3.org/Graphics/SVG/1.1/DTD/svg11.dtd">
<!-- Generated by graphviz version 2.38.0 (20140413.2041)
 -->
<!-- Title: Factory.Abstract.BicycleFactory.CreateGasolinePowered Pages: 1 -->
<svg width="346pt" height="88pt"
 viewBox="0.00 0.00 346.00 88.00" xmlns="http://www.w3.org/2000/svg" xmlns:xlink="http://www.w3.org/1999/xlink">
<g id="graph0" class="graph" transform="scale(1 1) rotate(0) translate(4 84)">
<title>Factory.Abstract.BicycleFactory.CreateGasolinePowered</title>
<polygon fill="white" stroke="none" points="-4,4 -4,-84 342,-84 342,4 -4,4"/>
<!-- Node1 -->
<g id="node1" class="node"><title>Node1</title>
<g id="a_node1"><a xlink:title=" ">
<polygon fill="#bfbfbf" stroke="black" points="0,-24.5 0,-54.5 157,-54.5 157,-24.5 0,-24.5"/>
<text text-anchor="start" x="8" y="-42.5" font-family="Helvetica,sans-Serif" font-size="10.00">Factory.Abstract.Bicycle</text>
<text text-anchor="middle" x="78.5" y="-31.5" font-family="Helvetica,sans-Serif" font-size="10.00">Factory.CreateGasolinePowered</text>
</a>
</g>
</g>
<!-- Node2 -->
<g id="node2" class="node"><title>Node2</title>
<g id="a_node2"><a xlink:href="class_products_1_1_scifi_vehicle_1_1_vehicle_builder.html#af78c4c17bc40c02fba320f0bebac48d6" target="_top" xlink:title=" ">
<polygon fill="white" stroke="black" points="193,-49.5 193,-79.5 338,-79.5 338,-49.5 193,-49.5"/>
<text text-anchor="start" x="201" y="-67.5" font-family="Helvetica,sans-Serif" font-size="10.00">Products.ScifiVehicle.Vehicle</text>
<text text-anchor="middle" x="265.5" y="-56.5" font-family="Helvetica,sans-Serif" font-size="10.00">Builder.AddWheels</text>
</a>
</g>
</g>
<!-- Node1&#45;&gt;Node2 -->
<g id="edge1" class="edge"><title>Node1&#45;&gt;Node2</title>
<path fill="none" stroke="midnightblue" d="M157.153,-49.9936C165.681,-51.1461 174.382,-52.322 182.957,-53.4806"/>
<polygon fill="midnightblue" stroke="midnightblue" points="182.567,-56.9596 192.945,-54.8304 183.504,-50.0227 182.567,-56.9596"/>
</g>
<!-- Node3 -->
<g id="node3" class="node"><title>Node3</title>
<g id="a_node3"><a xlink:href="class_products_1_1_scifi_vehicle_1_1_vehicle_builder.html#a5e397f0b77c789f568fe9a0855b03cfa" target="_top" xlink:title=" ">
<polygon fill="white" stroke="black" points="193,-0.5 193,-30.5 338,-30.5 338,-0.5 193,-0.5"/>
<text text-anchor="start" x="201" y="-18.5" font-family="Helvetica,sans-Serif" font-size="10.00">Products.ScifiVehicle.Vehicle</text>
<text text-anchor="middle" x="265.5" y="-7.5" font-family="Helvetica,sans-Serif" font-size="10.00">Builder.WithColor</text>
</a>
</g>
</g>
<!-- Node1&#45;&gt;Node3 -->
<g id="edge2" class="edge"><title>Node1&#45;&gt;Node3</title>
<path fill="none" stroke="midnightblue" d="M157.153,-29.4262C165.681,-28.3198 174.382,-27.1909 182.957,-26.0786"/>
<polygon fill="midnightblue" stroke="midnightblue" points="183.479,-29.5403 192.945,-24.7828 182.578,-22.5985 183.479,-29.5403"/>
</g>
</g>
</svg>
