<?xml version="1.0" encoding="UTF-8" standalone="no"?>
<!DOCTYPE svg PUBLIC "-//W3C//DTD SVG 1.1//EN"
 "http://www.w3.org/Graphics/SVG/1.1/DTD/svg11.dtd">
<!-- Generated by graphviz version 2.38.0 (20140413.2041)
 -->
<!-- Title: Products.ScifiVehicle.VehicleBuilder.WithColor Pages: 1 -->
<!--zoomable 578 -->
<svg id="main" version="1.1" xmlns="http://www.w3.org/2000/svg" xmlns:xlink="http://www.w3.org/1999/xlink" xml:space="preserve" onload="init(evt)">
<style type="text/css"><![CDATA[
.edge:hover path { stroke: red; }
.edge:hover polygon { stroke: red; fill: red; }
]]></style>
<script type="text/javascript"><![CDATA[
var edges = document.getElementsByTagName('g');
if (edges && edges.length) {
  for (var i=0;i<edges.length;i++) {
    if (edges[i].id.substr(0,4)=='edge') {
      edges[i].setAttribute('class','edge');
    }
  }
}
]]></script>
        <defs>
                <circle id="rim" cx="0" cy="0" r="7"/>
                <circle id="rim2" cx="0" cy="0" r="3.5"/>
                <g id="zoomPlus">
                        <use xlink:href="#rim" fill="#404040">
                                <set attributeName="fill" to="#808080" begin="zoomplus.mouseover" end="zoomplus.mouseout"/>
                        </use>
                        <path d="M-4,0h8M0,-4v8" fill="none" stroke="white" stroke-width="1.5" pointer-events="none"/>
                </g>
                <g id="zoomMin">
                        <use xlink:href="#rim" fill="#404040">
                                <set attributeName="fill" to="#808080" begin="zoomminus.mouseover" end="zoomminus.mouseout"/>
                        </use>
                        <path d="M-4,0h8" fill="none" stroke="white" stroke-width="1.5" pointer-events="none"/>
                </g>
                <g id="dirArrow">
                        <path fill="none" stroke="white" stroke-width="1.5" d="M0,-3.0v7 M-2.5,-0.5L0,-3.0L2.5,-0.5"/>
                </g>
               <g id="resetDef">
                       <use xlink:href="#rim2" fill="#404040">
                               <set attributeName="fill" to="#808080" begin="reset.mouseover" end="reset.mouseout"/>
                       </use>
               </g>
        </defs>

<script type="text/javascript">
var viewWidth = 346;
var viewHeight = 578;
var sectionId = 'dynsection-2';
</script>
<script xlink:href="svgpan.js"/>
<svg id="graph" class="graph">
<g id="viewport">
<title>Products.ScifiVehicle.VehicleBuilder.WithColor</title>
<polygon fill="white" stroke="none" points="-4,4 -4,-574 342,-574 342,4 -4,4"/>
<!-- Node1 -->
<g id="node1" class="node"><title>Node1</title>
<g id="a_node1"><a xlink:title=" ">
<polygon fill="#bfbfbf" stroke="black" points="193,-269.5 193,-299.5 338,-299.5 338,-269.5 193,-269.5"/>
<text text-anchor="start" x="201" y="-287.5" font-family="Helvetica,sans-Serif" font-size="10.00">Products.ScifiVehicle.Vehicle</text>
<text text-anchor="middle" x="265.5" y="-276.5" font-family="Helvetica,sans-Serif" font-size="10.00">Builder.WithColor</text>
</a>
</g>
</g>
<!-- Node2 -->
<g id="node2" class="node"><title>Node2</title>
<g id="a_node2"><a xlink:href="class_factory_1_1_abstract_1_1_airplane_factory.html#af1a67d0a404389eac65c53be9b9e6c27" target="_top" xlink:title=" ">
<polygon fill="white" stroke="black" points="0,-539.5 0,-569.5 157,-569.5 157,-539.5 0,-539.5"/>
<text text-anchor="start" x="8" y="-557.5" font-family="Helvetica,sans-Serif" font-size="10.00">Factory.Abstract.Airplane</text>
<text text-anchor="middle" x="78.5" y="-546.5" font-family="Helvetica,sans-Serif" font-size="10.00">Factory.CreateGasolinePowered</text>
</a>
</g>
</g>
<!-- Node1&#45;&gt;Node2 -->
<g id="edge1" class="edge"><title>Node1&#45;&gt;Node2</title>
<path fill="none" stroke="midnightblue" d="M260.599,-309.646C251.582,-359.224 224.653,-470.01 157,-530.5 153.115,-533.974 148.734,-536.945 144.082,-539.486"/>
<polygon fill="midnightblue" stroke="midnightblue" points="264.052,-310.215 262.303,-299.765 257.154,-309.025 264.052,-310.215"/>
</g>
<!-- Node3 -->
<g id="node3" class="node"><title>Node3</title>
<g id="a_node3"><a xlink:href="class_factory_1_1_abstract_1_1_lease_car_factory.html#a449d5548a5430b1d7b8c15e7821590d4" target="_top" xlink:title=" ">
<polygon fill="white" stroke="black" points="0,-490.5 0,-520.5 157,-520.5 157,-490.5 0,-490.5"/>
<text text-anchor="start" x="8" y="-508.5" font-family="Helvetica,sans-Serif" font-size="10.00">Factory.Abstract.LeaseCar</text>
<text text-anchor="middle" x="78.5" y="-497.5" font-family="Helvetica,sans-Serif" font-size="10.00">Factory.CreateGasolinePowered</text>
</a>
</g>
</g>
<!-- Node1&#45;&gt;Node3 -->
<g id="edge2" class="edge"><title>Node1&#45;&gt;Node3</title>
<path fill="none" stroke="midnightblue" d="M257.693,-309.261C244.958,-350.971 213.568,-435.211 157,-481.5 152.858,-484.89 148.238,-487.802 143.373,-490.303"/>
<polygon fill="midnightblue" stroke="midnightblue" points="261.064,-310.204 260.533,-299.622 254.35,-308.225 261.064,-310.204"/>
</g>
<!-- Node4 -->
<g id="node4" class="node"><title>Node4</title>
<g id="a_node4"><a xlink:href="class_factory_1_1_abstract_1_1_flying_car_factory.html#a38ce4dc05cc16c94ccfe78d8cb3e697c" target="_top" xlink:title=" ">
<polygon fill="white" stroke="black" points="0,-441.5 0,-471.5 157,-471.5 157,-441.5 0,-441.5"/>
<text text-anchor="start" x="8" y="-459.5" font-family="Helvetica,sans-Serif" font-size="10.00">Factory.Abstract.FlyingCar</text>
<text text-anchor="middle" x="78.5" y="-448.5" font-family="Helvetica,sans-Serif" font-size="10.00">Factory.CreateGasolinePowered</text>
</a>
</g>
</g>
<!-- Node1&#45;&gt;Node4 -->
<g id="edge3" class="edge"><title>Node1&#45;&gt;Node4</title>
<path fill="none" stroke="midnightblue" d="M253.084,-308.89C236.488,-341.736 202.628,-399.825 157,-432.5 152.19,-435.944 146.873,-438.904 141.343,-441.447"/>
<polygon fill="midnightblue" stroke="midnightblue" points="256.399,-310.081 257.674,-299.563 250.118,-306.99 256.399,-310.081"/>
</g>
<!-- Node5 -->
<g id="node5" class="node"><title>Node5</title>
<g id="a_node5"><a xlink:href="class_factory_1_1_abstract_1_1_bicycle_factory.html#a1760277312c6830d6d3f4f65a2f797f8" target="_top" xlink:title=" ">
<polygon fill="white" stroke="black" points="0,-392.5 0,-422.5 157,-422.5 157,-392.5 0,-392.5"/>
<text text-anchor="start" x="8" y="-410.5" font-family="Helvetica,sans-Serif" font-size="10.00">Factory.Abstract.Bicycle</text>
<text text-anchor="middle" x="78.5" y="-399.5" font-family="Helvetica,sans-Serif" font-size="10.00">Factory.CreateGasolinePowered</text>
</a>
</g>
</g>
<!-- Node1&#45;&gt;Node5 -->
<g id="edge4" class="edge"><title>Node1&#45;&gt;Node5</title>
<path fill="none" stroke="midnightblue" d="M245.112,-307.524C225.139,-329.882 192.056,-363.322 157,-383.5 151.14,-386.873 144.754,-389.824 138.243,-392.395"/>
<polygon fill="midnightblue" stroke="midnightblue" points="247.895,-309.659 251.857,-299.832 242.632,-305.043 247.895,-309.659"/>
</g>
<!-- Node6 -->
<g id="node6" class="node"><title>Node6</title>
<g id="a_node6"><a xlink:href="class_factory_1_1_abstract_1_1_airplane_factory.html#abd9588c1f6cb32f2e855d3f7a2bb0511" target="_top" xlink:title=" ">
<polygon fill="white" stroke="black" points="13,-343.5 13,-373.5 144,-373.5 144,-343.5 13,-343.5"/>
<text text-anchor="start" x="21" y="-361.5" font-family="Helvetica,sans-Serif" font-size="10.00">Factory.Abstract.Airplane</text>
<text text-anchor="middle" x="78.5" y="-350.5" font-family="Helvetica,sans-Serif" font-size="10.00">Factory.CreateJetPowered</text>
</a>
</g>
</g>
<!-- Node1&#45;&gt;Node6 -->
<g id="edge5" class="edge"><title>Node1&#45;&gt;Node6</title>
<path fill="none" stroke="midnightblue" d="M225.663,-304.111C205.468,-313.911 180.213,-325.555 157,-334.5 148.851,-337.64 140.104,-340.667 131.526,-343.451"/>
<polygon fill="midnightblue" stroke="midnightblue" points="227.408,-307.154 234.849,-299.612 224.329,-300.867 227.408,-307.154"/>
</g>
<!-- Node7 -->
<g id="node7" class="node"><title>Node7</title>
<g id="a_node7"><a xlink:href="class_factory_1_1_abstract_1_1_flying_car_factory.html#a0ffd232f2d84e99996c462631410cb0b" target="_top" xlink:title="Jet engines are not profitable in lease due to frequent crashes, so we just use a gasoline engine ins...">
<polygon fill="white" stroke="black" points="11.5,-294.5 11.5,-324.5 145.5,-324.5 145.5,-294.5 11.5,-294.5"/>
<text text-anchor="start" x="19.5" y="-312.5" font-family="Helvetica,sans-Serif" font-size="10.00">Factory.Abstract.FlyingCar</text>
<text text-anchor="middle" x="78.5" y="-301.5" font-family="Helvetica,sans-Serif" font-size="10.00">Factory.CreateJetPowered</text>
</a>
</g>
</g>
<!-- Node1&#45;&gt;Node7 -->
<g id="edge6" class="edge"><title>Node1&#45;&gt;Node7</title>
<path fill="none" stroke="midnightblue" d="M183.036,-295.509C170.549,-297.196 157.79,-298.92 145.686,-300.556"/>
<polygon fill="midnightblue" stroke="midnightblue" points="183.533,-298.973 192.974,-294.166 182.596,-292.036 183.533,-298.973"/>
</g>
<!-- Node8 -->
<g id="node8" class="node"><title>Node8</title>
<g id="a_node8"><a xlink:href="class_factory_1_1_abstract_1_1_lease_car_factory.html#abd310f2bfdec75eb50dc23d55f66929f" target="_top" xlink:title="Jet engines are not profitable in lease due to frequent crashes, so we just use a gasoline engine ins...">
<polygon fill="white" stroke="black" points="11.5,-245.5 11.5,-275.5 145.5,-275.5 145.5,-245.5 11.5,-245.5"/>
<text text-anchor="start" x="19.5" y="-263.5" font-family="Helvetica,sans-Serif" font-size="10.00">Factory.Abstract.LeaseCar</text>
<text text-anchor="middle" x="78.5" y="-252.5" font-family="Helvetica,sans-Serif" font-size="10.00">Factory.CreateJetPowered</text>
</a>
</g>
</g>
<!-- Node1&#45;&gt;Node8 -->
<g id="edge7" class="edge"><title>Node1&#45;&gt;Node8</title>
<path fill="none" stroke="midnightblue" d="M183.036,-273.932C170.549,-272.312 157.79,-270.657 145.686,-269.086"/>
<polygon fill="midnightblue" stroke="midnightblue" points="182.607,-277.405 192.974,-275.221 183.508,-270.463 182.607,-277.405"/>
</g>
<!-- Node9 -->
<g id="node9" class="node"><title>Node9</title>
<g id="a_node9"><a xlink:href="class_factory_1_1_abstract_1_1_bicycle_factory.html#a759c5ac6514ffdc41913043dd4f3c55b" target="_top" xlink:title="Colin Furze&#39;s bicycle. https://www.youtube.com/watch?v=bKHz7wOjb9w">
<polygon fill="white" stroke="black" points="13,-196.5 13,-226.5 144,-226.5 144,-196.5 13,-196.5"/>
<text text-anchor="start" x="21" y="-214.5" font-family="Helvetica,sans-Serif" font-size="10.00">Factory.Abstract.Bicycle</text>
<text text-anchor="middle" x="78.5" y="-203.5" font-family="Helvetica,sans-Serif" font-size="10.00">Factory.CreateJetPowered</text>
</a>
</g>
</g>
<!-- Node1&#45;&gt;Node9 -->
<g id="edge8" class="edge"><title>Node1&#45;&gt;Node9</title>
<path fill="none" stroke="midnightblue" d="M223.795,-265.079C203.873,-255.895 179.407,-245.088 157,-236.5 148.023,-233.06 138.347,-229.683 128.977,-226.579"/>
<polygon fill="midnightblue" stroke="midnightblue" points="222.348,-268.266 232.892,-269.305 225.298,-261.917 222.348,-268.266"/>
</g>
<!-- Node10 -->
<g id="node10" class="node"><title>Node10</title>
<g id="a_node10"><a xlink:href="class_factory_1_1_abstract_1_1_airplane_factory.html#a08abcd7f4890dfcd697f1ae907d968c6" target="_top" xlink:title=" ">
<polygon fill="white" stroke="black" points="4,-147.5 4,-177.5 153,-177.5 153,-147.5 4,-147.5"/>
<text text-anchor="start" x="12" y="-165.5" font-family="Helvetica,sans-Serif" font-size="10.00">Factory.Abstract.Airplane</text>
<text text-anchor="middle" x="78.5" y="-154.5" font-family="Helvetica,sans-Serif" font-size="10.00">Factory.CreatePeddlePowered</text>
</a>
</g>
</g>
<!-- Node1&#45;&gt;Node10 -->
<g id="edge9" class="edge"><title>Node1&#45;&gt;Node10</title>
<path fill="none" stroke="midnightblue" d="M244.63,-261.681C224.513,-239.857 191.523,-207.407 157,-187.5 150.386,-183.686 143.115,-180.369 135.757,-177.509"/>
<polygon fill="midnightblue" stroke="midnightblue" points="242.131,-264.135 251.438,-269.198 247.319,-259.436 242.131,-264.135"/>
</g>
<!-- Node11 -->
<g id="node11" class="node"><title>Node11</title>
<g id="a_node11"><a xlink:href="class_factory_1_1_abstract_1_1_lease_car_factory.html#a6b92c41565e5debd00db01f79ffb98b9" target="_top" xlink:title=" ">
<polygon fill="white" stroke="black" points="4,-98.5 4,-128.5 153,-128.5 153,-98.5 4,-98.5"/>
<text text-anchor="start" x="12" y="-116.5" font-family="Helvetica,sans-Serif" font-size="10.00">Factory.Abstract.LeaseCar</text>
<text text-anchor="middle" x="78.5" y="-105.5" font-family="Helvetica,sans-Serif" font-size="10.00">Factory.CreatePeddlePowered</text>
</a>
</g>
</g>
<!-- Node1&#45;&gt;Node11 -->
<g id="edge10" class="edge"><title>Node1&#45;&gt;Node11</title>
<path fill="none" stroke="midnightblue" d="M252.684,-260.018C235.836,-227.62 201.909,-170.838 157,-138.5 151.608,-134.617 145.583,-131.317 139.34,-128.517"/>
<polygon fill="midnightblue" stroke="midnightblue" points="249.714,-261.9 257.358,-269.236 255.957,-258.734 249.714,-261.9"/>
</g>
<!-- Node12 -->
<g id="node12" class="node"><title>Node12</title>
<g id="a_node12"><a xlink:href="class_factory_1_1_abstract_1_1_flying_car_factory.html#a0b5ff09f504d9b138805f22cd46ca641" target="_top" xlink:title=" ">
<polygon fill="white" stroke="black" points="4,-49.5 4,-79.5 153,-79.5 153,-49.5 4,-49.5"/>
<text text-anchor="start" x="12" y="-67.5" font-family="Helvetica,sans-Serif" font-size="10.00">Factory.Abstract.FlyingCar</text>
<text text-anchor="middle" x="78.5" y="-56.5" font-family="Helvetica,sans-Serif" font-size="10.00">Factory.CreatePeddlePowered</text>
</a>
</g>
</g>
<!-- Node1&#45;&gt;Node12 -->
<g id="edge11" class="edge"><title>Node1&#45;&gt;Node12</title>
<path fill="none" stroke="midnightblue" d="M257.384,-259.491C244.34,-218.113 212.7,-135.425 157,-89.5 152.31,-85.6327 147.008,-82.3592 141.434,-79.5892"/>
<polygon fill="midnightblue" stroke="midnightblue" points="254.111,-260.758 260.371,-269.306 260.807,-258.72 254.111,-260.758"/>
</g>
<!-- Node13 -->
<g id="node13" class="node"><title>Node13</title>
<g id="a_node13"><a xlink:href="class_factory_1_1_abstract_1_1_bicycle_factory.html#a7e0facba03372dc1c456562f5140a2b7" target="_top" xlink:title=" ">
<polygon fill="white" stroke="black" points="4,-0.5 4,-30.5 153,-30.5 153,-0.5 4,-0.5"/>
<text text-anchor="start" x="12" y="-18.5" font-family="Helvetica,sans-Serif" font-size="10.00">Factory.Abstract.Bicycle</text>
<text text-anchor="middle" x="78.5" y="-7.5" font-family="Helvetica,sans-Serif" font-size="10.00">Factory.CreatePeddlePowered</text>
</a>
</g>
</g>
<!-- Node1&#45;&gt;Node13 -->
<g id="edge12" class="edge"><title>Node1&#45;&gt;Node13</title>
<path fill="none" stroke="midnightblue" d="M260.416,-259.313C251.121,-210.102 223.788,-100.744 157,-40.5 152.696,-36.6176 147.783,-33.3376 142.566,-30.5665"/>
<polygon fill="midnightblue" stroke="midnightblue" points="257.014,-260.174 262.224,-269.399 263.904,-258.938 257.014,-260.174"/>
</g>
</g>
</svg>
        <g id="navigator" transform="translate(0 0)" fill="#404254">
                <rect fill="#f2f5e9" fill-opacity="0.5" stroke="#606060" stroke-width=".5" x="0" y="0" width="60" height="60"/>
                <use id="zoomplus" xlink:href="#zoomPlus" x="17" y="9" onmousedown="handleZoom(evt,'in')"/>
                <use id="zoomminus" xlink:href="#zoomMin" x="42" y="9" onmousedown="handleZoom(evt,'out')"/>
                <use id="reset" xlink:href="#resetDef" x="30" y="36" onmousedown="handleReset()"/>
                <g id="arrowUp" xlink:href="#dirArrow" transform="translate(30 24)" onmousedown="handlePan(0,-1)">
                  <use xlink:href="#rim" fill="#404040">
                        <set attributeName="fill" to="#808080" begin="arrowUp.mouseover" end="arrowUp.mouseout"/>
                  </use>
                  <path fill="none" stroke="white" stroke-width="1.5" d="M0,-3.0v7 M-2.5,-0.5L0,-3.0L2.5,-0.5"/>
                </g>
                <g id="arrowRight" xlink:href="#dirArrow" transform="rotate(90) translate(36 -43)" onmousedown="handlePan(1,0)">
                  <use xlink:href="#rim" fill="#404040">
                        <set attributeName="fill" to="#808080" begin="arrowRight.mouseover" end="arrowRight.mouseout"/>
                  </use>
                  <path fill="none" stroke="white" stroke-width="1.5" d="M0,-3.0v7 M-2.5,-0.5L0,-3.0L2.5,-0.5"/>
                </g>
                <g id="arrowDown" xlink:href="#dirArrow" transform="rotate(180) translate(-30 -48)" onmousedown="handlePan(0,1)">
                  <use xlink:href="#rim" fill="#404040">
                        <set attributeName="fill" to="#808080" begin="arrowDown.mouseover" end="arrowDown.mouseout"/>
                  </use>
                  <path fill="none" stroke="white" stroke-width="1.5" d="M0,-3.0v7 M-2.5,-0.5L0,-3.0L2.5,-0.5"/>
                </g>
                <g id="arrowLeft" xlink:href="#dirArrow" transform="rotate(270) translate(-36 17)" onmousedown="handlePan(-1,0)">
                  <use xlink:href="#rim" fill="#404040">
                        <set attributeName="fill" to="#808080" begin="arrowLeft.mouseover" end="arrowLeft.mouseout"/>
                  </use>
                  <path fill="none" stroke="white" stroke-width="1.5" d="M0,-3.0v7 M-2.5,-0.5L0,-3.0L2.5,-0.5"/>
                </g>
        </g>
        <svg viewBox="0 0 15 15" width="100%" height="30px" preserveAspectRatio="xMaxYMin meet">
         <g id="arrow_out" transform="scale(0.3 0.3)">
          <a xlink:href="class_products_1_1_scifi_vehicle_1_1_vehicle_builder_a5e397f0b77c789f568fe9a0855b03cfa_icgraph_org.svg" target="_base">
           <rect id="button" ry="5" rx="5" y="6" x="6" height="38" width="38"
                fill="#f2f5e9" fill-opacity="0.5" stroke="#606060" stroke-width="1.0"/>
           <path id="arrow"
             d="M 11.500037,31.436501 C 11.940474,20.09759 22.043105,11.32322 32.158766,21.979434 L 37.068811,17.246167 C 37.068811,17.246167 37.088388,32 37.088388,32 L 22.160133,31.978069 C 22.160133,31.978069 26.997745,27.140456 26.997745,27.140456 C 18.528582,18.264221 13.291696,25.230495 11.500037,31.436501 z"
             style="fill:#404040;"/>
          </a>
         </g>
        </svg>
</svg>
