<?xml version="1.0" encoding="UTF-8" standalone="no"?>
<!DOCTYPE svg PUBLIC "-//W3C//DTD SVG 1.1//EN"
 "http://www.w3.org/Graphics/SVG/1.1/DTD/svg11.dtd">
<!-- Generated by graphviz version 2.38.0 (20140413.2041)
 -->
<!-- Title: Products.ScifiCars.Propulsion.PropulsionSystem Pages: 1 -->
<svg width="658pt" height="204pt"
 viewBox="0.00 0.00 658.00 204.00" xmlns="http://www.w3.org/2000/svg" xmlns:xlink="http://www.w3.org/1999/xlink">
<g id="graph0" class="graph" transform="scale(1 1) rotate(0) translate(4 200)">
<title>Products.ScifiCars.Propulsion.PropulsionSystem</title>
<polygon fill="white" stroke="none" points="-4,4 -4,-200 654,-200 654,4 -4,4"/>
<!-- Node1 -->
<g id="node1" class="node"><title>Node1</title>
<g id="a_node1"><a xlink:title=" ">
<polygon fill="#bfbfbf" stroke="black" points="250,-105.5 250,-195.5 399,-195.5 399,-105.5 250,-105.5"/>
<text text-anchor="start" x="258" y="-183.5" font-family="Helvetica,sans-Serif" font-size="10.00">Products.ScifiCars.Propulsion.</text>
<text text-anchor="middle" x="324.5" y="-172.5" font-family="Helvetica,sans-Serif" font-size="10.00">PropulsionSystem</text>
<polyline fill="none" stroke="black" points="250,-165.5 399,-165.5 "/>
<text text-anchor="start" x="258" y="-153.5" font-family="Helvetica,sans-Serif" font-size="10.00">+ CanFly</text>
<text text-anchor="start" x="258" y="-142.5" font-family="Helvetica,sans-Serif" font-size="10.00">+ fuelEfficiencyPercent</text>
<text text-anchor="start" x="258" y="-131.5" font-family="Helvetica,sans-Serif" font-size="10.00">+ Description</text>
<polyline fill="none" stroke="black" points="250,-124.5 399,-124.5 "/>
<text text-anchor="start" x="258" y="-112.5" font-family="Helvetica,sans-Serif" font-size="10.00">+ ToString()</text>
</a>
</g>
</g>
<!-- Node2 -->
<g id="node2" class="node"><title>Node2</title>
<g id="a_node2"><a xlink:href="class_products_1_1_scifi_cars_1_1_propulsion_1_1_conventional_1_1_gasoline_engine.html" target="_top" xlink:title=" ">
<polygon fill="white" stroke="black" points="0,-0.5 0,-68.5 149,-68.5 149,-0.5 0,-0.5"/>
<text text-anchor="start" x="8" y="-56.5" font-family="Helvetica,sans-Serif" font-size="10.00">Products.ScifiCars.Propulsion.</text>
<text text-anchor="middle" x="74.5" y="-45.5" font-family="Helvetica,sans-Serif" font-size="10.00">Conventional.GasolineEngine</text>
<polyline fill="none" stroke="black" points="0,-38.5 149,-38.5 "/>
<text text-anchor="start" x="8" y="-26.5" font-family="Helvetica,sans-Serif" font-size="10.00">+ Description</text>
<polyline fill="none" stroke="black" points="0,-19.5 149,-19.5 "/>
<text text-anchor="middle" x="74.5" y="-7.5" font-family="Helvetica,sans-Serif" font-size="10.00"> </text>
</a>
</g>
</g>
<!-- Node1&#45;&gt;Node2 -->
<g id="edge1" class="edge"><title>Node1&#45;&gt;Node2</title>
<path fill="none" stroke="midnightblue" d="M240.55,-111.219C210.244,-97.3992 176.316,-81.928 147.066,-68.5902"/>
<polygon fill="none" stroke="midnightblue" points="239.28,-114.486 249.83,-115.451 242.184,-108.117 239.28,-114.486"/>
</g>
<!-- Node3 -->
<g id="node3" class="node"><title>Node3</title>
<g id="a_node3"><a xlink:href="class_products_1_1_scifi_cars_1_1_propulsion_1_1_conventional_1_1_peddles.html" target="_top" xlink:title=" ">
<polygon fill="white" stroke="black" points="167,-0.5 167,-68.5 316,-68.5 316,-0.5 167,-0.5"/>
<text text-anchor="start" x="175" y="-56.5" font-family="Helvetica,sans-Serif" font-size="10.00">Products.ScifiCars.Propulsion.</text>
<text text-anchor="middle" x="241.5" y="-45.5" font-family="Helvetica,sans-Serif" font-size="10.00">Conventional.Peddles</text>
<polyline fill="none" stroke="black" points="167,-38.5 316,-38.5 "/>
<text text-anchor="start" x="175" y="-26.5" font-family="Helvetica,sans-Serif" font-size="10.00">+ Description</text>
<polyline fill="none" stroke="black" points="167,-19.5 316,-19.5 "/>
<text text-anchor="middle" x="241.5" y="-7.5" font-family="Helvetica,sans-Serif" font-size="10.00"> </text>
</a>
</g>
</g>
<!-- Node1&#45;&gt;Node3 -->
<g id="edge2" class="edge"><title>Node1&#45;&gt;Node3</title>
<path fill="none" stroke="midnightblue" d="M286.322,-97.063C279.335,-87.4659 272.221,-77.6951 265.78,-68.8483"/>
<polygon fill="none" stroke="midnightblue" points="283.695,-99.4004 292.41,-105.425 289.354,-95.2802 283.695,-99.4004"/>
</g>
<!-- Node4 -->
<g id="node4" class="node"><title>Node4</title>
<g id="a_node4"><a xlink:href="class_products_1_1_scifi_cars_1_1_propulsion_1_1_exotic_1_1_anti_gravity_pads.html" target="_top" xlink:title=" ">
<polygon fill="white" stroke="black" points="334,-0.5 334,-68.5 483,-68.5 483,-0.5 334,-0.5"/>
<text text-anchor="start" x="342" y="-56.5" font-family="Helvetica,sans-Serif" font-size="10.00">Products.ScifiCars.Propulsion.</text>
<text text-anchor="middle" x="408.5" y="-45.5" font-family="Helvetica,sans-Serif" font-size="10.00">Exotic.AntiGravityPads</text>
<polyline fill="none" stroke="black" points="334,-38.5 483,-38.5 "/>
<text text-anchor="start" x="342" y="-26.5" font-family="Helvetica,sans-Serif" font-size="10.00">+ Description</text>
<polyline fill="none" stroke="black" points="334,-19.5 483,-19.5 "/>
<text text-anchor="middle" x="408.5" y="-7.5" font-family="Helvetica,sans-Serif" font-size="10.00"> </text>
</a>
</g>
</g>
<!-- Node1&#45;&gt;Node4 -->
<g id="edge3" class="edge"><title>Node1&#45;&gt;Node4</title>
<path fill="none" stroke="midnightblue" d="M362.924,-97.3538C370.064,-87.6634 377.343,-77.7844 383.928,-68.8483"/>
<polygon fill="none" stroke="midnightblue" points="360.091,-95.2978 356.977,-105.425 365.726,-99.4503 360.091,-95.2978"/>
</g>
<!-- Node5 -->
<g id="node5" class="node"><title>Node5</title>
<g id="a_node5"><a xlink:href="class_products_1_1_scifi_cars_1_1_propulsion_1_1_exotic_1_1_jet_engine.html" target="_top" xlink:title=" ">
<polygon fill="white" stroke="black" points="501,-0.5 501,-68.5 650,-68.5 650,-0.5 501,-0.5"/>
<text text-anchor="start" x="509" y="-56.5" font-family="Helvetica,sans-Serif" font-size="10.00">Products.ScifiCars.Propulsion.</text>
<text text-anchor="middle" x="575.5" y="-45.5" font-family="Helvetica,sans-Serif" font-size="10.00">Exotic.JetEngine</text>
<polyline fill="none" stroke="black" points="501,-38.5 650,-38.5 "/>
<text text-anchor="start" x="509" y="-26.5" font-family="Helvetica,sans-Serif" font-size="10.00">+ Description</text>
<polyline fill="none" stroke="black" points="501,-19.5 650,-19.5 "/>
<text text-anchor="middle" x="575.5" y="-7.5" font-family="Helvetica,sans-Serif" font-size="10.00"> </text>
</a>
</g>
</g>
<!-- Node1&#45;&gt;Node5 -->
<g id="edge4" class="edge"><title>Node1&#45;&gt;Node5</title>
<path fill="none" stroke="midnightblue" d="M408.451,-111.371C438.898,-97.5423 473.023,-82.0432 502.455,-68.6757"/>
<polygon fill="none" stroke="midnightblue" points="406.786,-108.283 399.129,-115.605 409.681,-114.656 406.786,-108.283"/>
</g>
</g>
</svg>
