<?xml version="1.0" encoding="UTF-8" standalone="no"?>
<!DOCTYPE svg PUBLIC "-//W3C//DTD SVG 1.1//EN"
 "http://www.w3.org/Graphics/SVG/1.1/DTD/svg11.dtd">
<!-- Generated by graphviz version 2.38.0 (20140413.2041)
 -->
<!-- Title: Factory.PizzaMethodFactory Pages: 1 -->
<svg width="322pt" height="171pt"
 viewBox="0.00 0.00 322.00 171.00" xmlns="http://www.w3.org/2000/svg" xmlns:xlink="http://www.w3.org/1999/xlink">
<g id="graph0" class="graph" transform="scale(1 1) rotate(0) translate(4 167)">
<title>Factory.PizzaMethodFactory</title>
<polygon fill="white" stroke="none" points="-4,4 -4,-167 318,-167 318,4 -4,4"/>
<!-- Node1 -->
<g id="node1" class="node"><title>Node1</title>
<g id="a_node1"><a xlink:title=" ">
<polygon fill="#bfbfbf" stroke="black" points="89.5,-94.5 89.5,-162.5 232.5,-162.5 232.5,-94.5 89.5,-94.5"/>
<text text-anchor="middle" x="161" y="-150.5" font-family="Helvetica,sans-Serif" font-size="10.00">Factory.PizzaMethodFactory</text>
<polyline fill="none" stroke="black" points="89.5,-143.5 232.5,-143.5 "/>
<text text-anchor="middle" x="161" y="-131.5" font-family="Helvetica,sans-Serif" font-size="10.00"> </text>
<polyline fill="none" stroke="black" points="89.5,-124.5 232.5,-124.5 "/>
<text text-anchor="start" x="97.5" y="-112.5" font-family="Helvetica,sans-Serif" font-size="10.00">+ CreatePizza()</text>
<text text-anchor="start" x="97.5" y="-101.5" font-family="Helvetica,sans-Serif" font-size="10.00">+ CookPizza()</text>
</a>
</g>
</g>
<!-- Node2 -->
<g id="node2" class="node"><title>Node2</title>
<g id="a_node2"><a xlink:href="class_factory_1_1_pizza_margherita_factory.html" target="_top" xlink:title=" ">
<polygon fill="white" stroke="black" points="0,-0.5 0,-57.5 156,-57.5 156,-0.5 0,-0.5"/>
<text text-anchor="middle" x="78" y="-45.5" font-family="Helvetica,sans-Serif" font-size="10.00">Factory.PizzaMargheritaFactory</text>
<polyline fill="none" stroke="black" points="0,-38.5 156,-38.5 "/>
<text text-anchor="start" x="8" y="-26.5" font-family="Helvetica,sans-Serif" font-size="10.00">&#45; _ignored</text>
<polyline fill="none" stroke="black" points="0,-19.5 156,-19.5 "/>
<text text-anchor="start" x="8" y="-7.5" font-family="Helvetica,sans-Serif" font-size="10.00">+ CookPizza()</text>
</a>
</g>
</g>
<!-- Node1&#45;&gt;Node2 -->
<g id="edge1" class="edge"><title>Node1&#45;&gt;Node2</title>
<path fill="none" stroke="midnightblue" d="M126.338,-86.7826C118.022,-77.0138 109.329,-66.8026 101.646,-57.7765"/>
<polygon fill="none" stroke="midnightblue" points="123.753,-89.1451 132.9,-94.4909 129.083,-84.6076 123.753,-89.1451"/>
</g>
<!-- Node3 -->
<g id="node3" class="node"><title>Node3</title>
<g id="a_node3"><a xlink:href="class_factory_1_1_pizza_salami_factory.html" target="_top" xlink:title=" ">
<polygon fill="white" stroke="black" points="174,-0.5 174,-57.5 314,-57.5 314,-0.5 174,-0.5"/>
<text text-anchor="middle" x="244" y="-45.5" font-family="Helvetica,sans-Serif" font-size="10.00">Factory.PizzaSalamiFactory</text>
<polyline fill="none" stroke="black" points="174,-38.5 314,-38.5 "/>
<text text-anchor="start" x="182" y="-26.5" font-family="Helvetica,sans-Serif" font-size="10.00">&#45; _ignored</text>
<polyline fill="none" stroke="black" points="174,-19.5 314,-19.5 "/>
<text text-anchor="start" x="182" y="-7.5" font-family="Helvetica,sans-Serif" font-size="10.00">+ CookPizza()</text>
</a>
</g>
</g>
<!-- Node1&#45;&gt;Node3 -->
<g id="edge2" class="edge"><title>Node1&#45;&gt;Node3</title>
<path fill="none" stroke="midnightblue" d="M195.662,-86.7826C203.978,-77.0138 212.671,-66.8026 220.354,-57.7765"/>
<polygon fill="none" stroke="midnightblue" points="192.917,-84.6076 189.1,-94.4909 198.247,-89.1451 192.917,-84.6076"/>
</g>
</g>
</svg>
