<?xml version="1.0" encoding="UTF-8" standalone="no"?>
<!DOCTYPE svg PUBLIC "-//W3C//DTD SVG 1.1//EN"
 "http://www.w3.org/Graphics/SVG/1.1/DTD/svg11.dtd">
<!-- Generated by graphviz version 2.38.0 (20140413.2041)
 -->
<!-- Title: Factory.Abstract.AirplaneFactory Pages: 1 -->
<svg width="144pt" height="215pt"
 viewBox="0.00 0.00 144.00 215.00" xmlns="http://www.w3.org/2000/svg" xmlns:xlink="http://www.w3.org/1999/xlink">
<g id="graph0" class="graph" transform="scale(1 1) rotate(0) translate(4 211)">
<title>Factory.Abstract.AirplaneFactory</title>
<polygon fill="white" stroke="none" points="-4,4 -4,-211 140,-211 140,4 -4,4"/>
<!-- Node1 -->
<g id="node1" class="node"><title>Node1</title>
<g id="a_node1"><a xlink:title=" ">
<polygon fill="#bfbfbf" stroke="black" points="0,-0.5 0,-90.5 136,-90.5 136,-0.5 0,-0.5"/>
<text text-anchor="start" x="8" y="-78.5" font-family="Helvetica,sans-Serif" font-size="10.00">Factory.Abstract.Airplane</text>
<text text-anchor="middle" x="68" y="-67.5" font-family="Helvetica,sans-Serif" font-size="10.00">Factory</text>
<polyline fill="none" stroke="black" points="0,-60.5 136,-60.5 "/>
<text text-anchor="middle" x="68" y="-48.5" font-family="Helvetica,sans-Serif" font-size="10.00"> </text>
<polyline fill="none" stroke="black" points="0,-41.5 136,-41.5 "/>
<text text-anchor="start" x="8" y="-29.5" font-family="Helvetica,sans-Serif" font-size="10.00">+ CreateGasolinePowered()</text>
<text text-anchor="start" x="8" y="-18.5" font-family="Helvetica,sans-Serif" font-size="10.00">+ CreateJetPowered()</text>
<text text-anchor="start" x="8" y="-7.5" font-family="Helvetica,sans-Serif" font-size="10.00">+ CreatePeddlePowered()</text>
</a>
</g>
</g>
<!-- Node2 -->
<g id="node2" class="node"><title>Node2</title>
<g id="a_node2"><a xlink:href="interface_factory_1_1_abstract_1_1_i_vehicle_factory.html" target="_top" xlink:title=" ">
<polygon fill="white" stroke="black" points="0,-127.5 0,-206.5 136,-206.5 136,-127.5 0,-127.5"/>
<text text-anchor="middle" x="68" y="-194.5" font-family="Helvetica,sans-Serif" font-size="10.00">IVehicleFactory</text>
<polyline fill="none" stroke="black" points="0,-187.5 136,-187.5 "/>
<text text-anchor="middle" x="68" y="-175.5" font-family="Helvetica,sans-Serif" font-size="10.00"> </text>
<polyline fill="none" stroke="black" points="0,-168.5 136,-168.5 "/>
<text text-anchor="start" x="8" y="-156.5" font-family="Helvetica,sans-Serif" font-size="10.00">+ CreateJetPowered()</text>
<text text-anchor="start" x="8" y="-145.5" font-family="Helvetica,sans-Serif" font-size="10.00">+ CreatePeddlePowered()</text>
<text text-anchor="start" x="8" y="-134.5" font-family="Helvetica,sans-Serif" font-size="10.00">+ CreateGasolinePowered()</text>
</a>
</g>
</g>
<!-- Node2&#45;&gt;Node1 -->
<g id="edge1" class="edge"><title>Node2&#45;&gt;Node1</title>
<path fill="none" stroke="midnightblue" d="M68,-117.187C68,-108.491 68,-99.4758 68,-90.9111"/>
<polygon fill="none" stroke="midnightblue" points="64.5001,-117.202 68,-127.202 71.5001,-117.202 64.5001,-117.202"/>
</g>
</g>
</svg>
