<?xml version="1.0" encoding="UTF-8" standalone="no"?>
<!DOCTYPE svg PUBLIC "-//W3C//DTD SVG 1.1//EN"
 "http://www.w3.org/Graphics/SVG/1.1/DTD/svg11.dtd">
<!-- Generated by graphviz version 2.38.0 (20140413.2041)
 -->
<!-- Title: Factory.PizzaMargheritaFactory Pages: 1 -->
<svg width="280pt" height="277pt"
 viewBox="0.00 0.00 279.50 277.00" xmlns="http://www.w3.org/2000/svg" xmlns:xlink="http://www.w3.org/1999/xlink">
<g id="graph0" class="graph" transform="scale(1 1) rotate(0) translate(4 273)">
<title>Factory.PizzaMargheritaFactory</title>
<polygon fill="white" stroke="none" points="-4,4 -4,-273 275.5,-273 275.5,4 -4,4"/>
<!-- Node1 -->
<g id="node1" class="node"><title>Node1</title>
<g id="a_node1"><a xlink:title=" ">
<polygon fill="#bfbfbf" stroke="black" points="19.5,-0.5 19.5,-57.5 175.5,-57.5 175.5,-0.5 19.5,-0.5"/>
<text text-anchor="middle" x="97.5" y="-45.5" font-family="Helvetica,sans-Serif" font-size="10.00">Factory.PizzaMargheritaFactory</text>
<polyline fill="none" stroke="black" points="19.5,-38.5 175.5,-38.5 "/>
<text text-anchor="middle" x="97.5" y="-26.5" font-family="Helvetica,sans-Serif" font-size="10.00"> </text>
<polyline fill="none" stroke="black" points="19.5,-19.5 175.5,-19.5 "/>
<text text-anchor="start" x="27.5" y="-7.5" font-family="Helvetica,sans-Serif" font-size="10.00">+ CookPizza()</text>
</a>
</g>
</g>
<!-- Node2 -->
<g id="node2" class="node"><title>Node2</title>
<g id="a_node2"><a xlink:href="class_factory_1_1_pizza_method_factory.html" target="_top" xlink:title=" ">
<polygon fill="white" stroke="black" points="0,-105.5 0,-173.5 107,-173.5 107,-105.5 0,-105.5"/>
<text text-anchor="middle" x="53.5" y="-161.5" font-family="Helvetica,sans-Serif" font-size="10.00">PizzaMethodFactory</text>
<polyline fill="none" stroke="black" points="0,-154.5 107,-154.5 "/>
<text text-anchor="middle" x="53.5" y="-142.5" font-family="Helvetica,sans-Serif" font-size="10.00"> </text>
<polyline fill="none" stroke="black" points="0,-135.5 107,-135.5 "/>
<text text-anchor="start" x="8" y="-123.5" font-family="Helvetica,sans-Serif" font-size="10.00">+ CreatePizza()</text>
<text text-anchor="start" x="8" y="-112.5" font-family="Helvetica,sans-Serif" font-size="10.00">+ CookPizza()</text>
</a>
</g>
</g>
<!-- Node2&#45;&gt;Node1 -->
<g id="edge1" class="edge"><title>Node2&#45;&gt;Node1</title>
<path fill="none" stroke="midnightblue" d="M70.8096,-95.8161C75.9883,-83.0459 81.5307,-69.3789 86.2153,-57.827"/>
<polygon fill="none" stroke="midnightblue" points="67.4552,-94.7745 66.9405,-105.357 73.9421,-97.4052 67.4552,-94.7745"/>
</g>
<!-- Node3 -->
<g id="node3" class="node"><title>Node3</title>
<g id="a_node3"><a xlink:href="class_products_1_1_pizzas_1_1_salami_pizza.html" target="_top" xlink:title=" ">
<polygon fill="white" stroke="black" points="125.5,-111 125.5,-168 271.5,-168 271.5,-111 125.5,-111"/>
<text text-anchor="middle" x="198.5" y="-156" font-family="Helvetica,sans-Serif" font-size="10.00">Products.Pizzas.SalamiPizza</text>
<polyline fill="none" stroke="black" points="125.5,-149 271.5,-149 "/>
<text text-anchor="middle" x="198.5" y="-137" font-family="Helvetica,sans-Serif" font-size="10.00"> </text>
<polyline fill="none" stroke="black" points="125.5,-130 271.5,-130 "/>
<text text-anchor="middle" x="198.5" y="-118" font-family="Helvetica,sans-Serif" font-size="10.00"> </text>
</a>
</g>
</g>
<!-- Node3&#45;&gt;Node1 -->
<g id="edge2" class="edge"><title>Node3&#45;&gt;Node1</title>
<path fill="none" stroke="#404040" d="M172.752,-110.84C160.287,-97.4493 145.149,-81.1869 131.727,-66.7689"/>
<polygon fill="none" stroke="#404040" points="131.377,-66.3928 124.361,-64.7265 123.201,-57.6094 130.217,-59.2756 131.377,-66.3928"/>
<text text-anchor="middle" x="169" y="-79" font-family="Helvetica,sans-Serif" font-size="10.00"> &#45;_ignored</text>
</g>
<!-- Node4 -->
<g id="node4" class="node"><title>Node4</title>
<g id="a_node4"><a xlink:href="class_products_1_1_pizzas_1_1_pizza.html" target="_top" xlink:title=" ">
<polygon fill="white" stroke="black" points="178,-211.5 178,-268.5 219,-268.5 219,-211.5 178,-211.5"/>
<text text-anchor="middle" x="198.5" y="-256.5" font-family="Helvetica,sans-Serif" font-size="10.00">Pizza</text>
<polyline fill="none" stroke="black" points="178,-249.5 219,-249.5 "/>
<text text-anchor="middle" x="198.5" y="-237.5" font-family="Helvetica,sans-Serif" font-size="10.00"> </text>
<polyline fill="none" stroke="black" points="178,-230.5 219,-230.5 "/>
<text text-anchor="middle" x="198.5" y="-218.5" font-family="Helvetica,sans-Serif" font-size="10.00"> </text>
</a>
</g>
</g>
<!-- Node4&#45;&gt;Node3 -->
<g id="edge3" class="edge"><title>Node4&#45;&gt;Node3</title>
<path fill="none" stroke="midnightblue" d="M198.5,-201.15C198.5,-190.232 198.5,-178.523 198.5,-168.333"/>
<polygon fill="none" stroke="midnightblue" points="195,-201.3 198.5,-211.3 202,-201.3 195,-201.3"/>
</g>
</g>
</svg>
