<?xml version="1.0" encoding="UTF-8" standalone="no"?>
<!DOCTYPE svg PUBLIC "-//W3C//DTD SVG 1.1//EN"
 "http://www.w3.org/Graphics/SVG/1.1/DTD/svg11.dtd">
<!-- Generated by graphviz version 2.38.0 (20140413.2041)
 -->
<!-- Title: Products.Pizzas.Pizza Pages: 1 -->
<svg width="310pt" height="171pt"
 viewBox="0.00 0.00 309.50 171.00" xmlns="http://www.w3.org/2000/svg" xmlns:xlink="http://www.w3.org/1999/xlink">
<g id="graph0" class="graph" transform="scale(1 1) rotate(0) translate(4 167)">
<title>Products.Pizzas.Pizza</title>
<polygon fill="white" stroke="none" points="-4,4 -4,-167 305.5,-167 305.5,4 -4,4"/>
<!-- Node1 -->
<g id="node1" class="node"><title>Node1</title>
<g id="a_node1"><a xlink:title=" ">
<polygon fill="#bfbfbf" stroke="black" points="90.5,-105.5 90.5,-162.5 206.5,-162.5 206.5,-105.5 90.5,-105.5"/>
<text text-anchor="middle" x="148.5" y="-150.5" font-family="Helvetica,sans-Serif" font-size="10.00">Products.Pizzas.Pizza</text>
<polyline fill="none" stroke="black" points="90.5,-143.5 206.5,-143.5 "/>
<text text-anchor="middle" x="148.5" y="-131.5" font-family="Helvetica,sans-Serif" font-size="10.00"> </text>
<polyline fill="none" stroke="black" points="90.5,-124.5 206.5,-124.5 "/>
<text text-anchor="middle" x="148.5" y="-112.5" font-family="Helvetica,sans-Serif" font-size="10.00"> </text>
</a>
</g>
</g>
<!-- Node2 -->
<g id="node2" class="node"><title>Node2</title>
<g id="a_node2"><a xlink:href="class_products_1_1_pizzas_1_1_margherita_pizza.html" target="_top" xlink:title=" ">
<polygon fill="white" stroke="black" points="0,-0.5 0,-68.5 137,-68.5 137,-0.5 0,-0.5"/>
<text text-anchor="start" x="8" y="-56.5" font-family="Helvetica,sans-Serif" font-size="10.00">Products.Pizzas.Margherita</text>
<text text-anchor="middle" x="68.5" y="-45.5" font-family="Helvetica,sans-Serif" font-size="10.00">Pizza</text>
<polyline fill="none" stroke="black" points="0,-38.5 137,-38.5 "/>
<text text-anchor="middle" x="68.5" y="-26.5" font-family="Helvetica,sans-Serif" font-size="10.00"> </text>
<polyline fill="none" stroke="black" points="0,-19.5 137,-19.5 "/>
<text text-anchor="middle" x="68.5" y="-7.5" font-family="Helvetica,sans-Serif" font-size="10.00"> </text>
</a>
</g>
</g>
<!-- Node1&#45;&gt;Node2 -->
<g id="edge1" class="edge"><title>Node1&#45;&gt;Node2</title>
<path fill="none" stroke="midnightblue" d="M119.239,-97.3377C111.583,-88.0075 103.361,-77.9866 95.8112,-68.7855"/>
<polygon fill="none" stroke="midnightblue" points="116.74,-99.8106 125.789,-105.321 122.152,-95.3703 116.74,-99.8106"/>
</g>
<!-- Node3 -->
<g id="node3" class="node"><title>Node3</title>
<g id="a_node3"><a xlink:href="class_products_1_1_pizzas_1_1_salami_pizza.html" target="_top" xlink:title=" ">
<polygon fill="white" stroke="black" points="155.5,-6 155.5,-63 301.5,-63 301.5,-6 155.5,-6"/>
<text text-anchor="middle" x="228.5" y="-51" font-family="Helvetica,sans-Serif" font-size="10.00">Products.Pizzas.SalamiPizza</text>
<polyline fill="none" stroke="black" points="155.5,-44 301.5,-44 "/>
<text text-anchor="middle" x="228.5" y="-32" font-family="Helvetica,sans-Serif" font-size="10.00"> </text>
<polyline fill="none" stroke="black" points="155.5,-25 301.5,-25 "/>
<text text-anchor="middle" x="228.5" y="-13" font-family="Helvetica,sans-Serif" font-size="10.00"> </text>
</a>
</g>
</g>
<!-- Node1&#45;&gt;Node3 -->
<g id="edge2" class="edge"><title>Node1&#45;&gt;Node3</title>
<path fill="none" stroke="midnightblue" d="M177.752,-97.3489C186.978,-86.1046 197.028,-73.8561 205.732,-63.248"/>
<polygon fill="none" stroke="midnightblue" points="174.848,-95.3703 171.211,-105.321 180.26,-99.8106 174.848,-95.3703"/>
</g>
</g>
</svg>
