<?xml version="1.0" encoding="UTF-8" standalone="no"?>
<!DOCTYPE svg PUBLIC "-//W3C//DTD SVG 1.1//EN"
 "http://www.w3.org/Graphics/SVG/1.1/DTD/svg11.dtd">
<!-- Generated by graphviz version 2.38.0 (20140413.2041)
 -->
<!-- Title: Graphical Class Hierarchy Pages: 1 -->
<svg width="342pt" height="186pt"
 viewBox="0.00 0.00 342.00 186.00" xmlns="http://www.w3.org/2000/svg" xmlns:xlink="http://www.w3.org/1999/xlink">
<g id="graph0" class="graph" transform="scale(1 1) rotate(0) translate(4 182)">
<title>Graphical Class Hierarchy</title>
<polygon fill="white" stroke="none" points="-4,4 -4,-182 338,-182 338,4 -4,4"/>
<!-- Node0 -->
<g id="node1" class="node"><title>Node0</title>
<g id="a_node1"><a xlink:href="class_products_1_1_scifi_cars_1_1_propulsion_1_1_propulsion_system.html" target="_top" xlink:title=" ">
<polygon fill="white" stroke="black" points="0,-73.5 0,-103.5 149,-103.5 149,-73.5 0,-73.5"/>
<text text-anchor="start" x="8" y="-91.5" font-family="Helvetica,sans-Serif" font-size="10.00">Products.ScifiCars.Propulsion.</text>
<text text-anchor="middle" x="74.5" y="-80.5" font-family="Helvetica,sans-Serif" font-size="10.00">PropulsionSystem</text>
</a>
</g>
</g>
<!-- Node1 -->
<g id="node2" class="node"><title>Node1</title>
<g id="a_node2"><a xlink:href="class_products_1_1_scifi_cars_1_1_propulsion_1_1_conventional_1_1_gasoline_engine.html" target="_top" xlink:title=" ">
<polygon fill="white" stroke="black" points="185,-147.5 185,-177.5 334,-177.5 334,-147.5 185,-147.5"/>
<text text-anchor="start" x="193" y="-165.5" font-family="Helvetica,sans-Serif" font-size="10.00">Products.ScifiCars.Propulsion.</text>
<text text-anchor="middle" x="259.5" y="-154.5" font-family="Helvetica,sans-Serif" font-size="10.00">Conventional.GasolineEngine</text>
</a>
</g>
</g>
<!-- Node0&#45;&gt;Node1 -->
<g id="edge1" class="edge"><title>Node0&#45;&gt;Node1</title>
<path fill="none" stroke="midnightblue" d="M115.319,-107.993C135.887,-117.725 161.532,-129.344 185,-138.5 192.878,-141.574 201.33,-144.588 209.597,-147.386"/>
<polygon fill="midnightblue" stroke="midnightblue" points="116.784,-104.814 106.252,-103.669 113.772,-111.132 116.784,-104.814"/>
</g>
<!-- Node2 -->
<g id="node3" class="node"><title>Node2</title>
<g id="a_node3"><a xlink:href="class_products_1_1_scifi_cars_1_1_propulsion_1_1_conventional_1_1_peddles.html" target="_top" xlink:title=" ">
<polygon fill="white" stroke="black" points="185,-98.5 185,-128.5 334,-128.5 334,-98.5 185,-98.5"/>
<text text-anchor="start" x="193" y="-116.5" font-family="Helvetica,sans-Serif" font-size="10.00">Products.ScifiCars.Propulsion.</text>
<text text-anchor="middle" x="259.5" y="-105.5" font-family="Helvetica,sans-Serif" font-size="10.00">Conventional.Peddles</text>
</a>
</g>
</g>
<!-- Node0&#45;&gt;Node2 -->
<g id="edge2" class="edge"><title>Node0&#45;&gt;Node2</title>
<path fill="none" stroke="midnightblue" d="M159.109,-99.922C167.651,-101.089 176.285,-102.268 184.711,-103.419"/>
<polygon fill="midnightblue" stroke="midnightblue" points="159.524,-96.4462 149.142,-98.5604 158.576,-103.382 159.524,-96.4462"/>
</g>
<!-- Node3 -->
<g id="node4" class="node"><title>Node3</title>
<g id="a_node4"><a xlink:href="class_products_1_1_scifi_cars_1_1_propulsion_1_1_exotic_1_1_anti_gravity_pads.html" target="_top" xlink:title=" ">
<polygon fill="white" stroke="black" points="185,-49.5 185,-79.5 334,-79.5 334,-49.5 185,-49.5"/>
<text text-anchor="start" x="193" y="-67.5" font-family="Helvetica,sans-Serif" font-size="10.00">Products.ScifiCars.Propulsion.</text>
<text text-anchor="middle" x="259.5" y="-56.5" font-family="Helvetica,sans-Serif" font-size="10.00">Exotic.AntiGravityPads</text>
</a>
</g>
</g>
<!-- Node0&#45;&gt;Node3 -->
<g id="edge3" class="edge"><title>Node0&#45;&gt;Node3</title>
<path fill="none" stroke="midnightblue" d="M159.109,-77.5349C167.651,-76.4147 176.285,-75.2823 184.711,-74.1773"/>
<polygon fill="midnightblue" stroke="midnightblue" points="158.602,-74.0713 149.142,-78.842 159.512,-81.0119 158.602,-74.0713"/>
</g>
<!-- Node4 -->
<g id="node5" class="node"><title>Node4</title>
<g id="a_node5"><a xlink:href="class_products_1_1_scifi_cars_1_1_propulsion_1_1_exotic_1_1_jet_engine.html" target="_top" xlink:title=" ">
<polygon fill="white" stroke="black" points="185,-0.5 185,-30.5 334,-30.5 334,-0.5 185,-0.5"/>
<text text-anchor="start" x="193" y="-18.5" font-family="Helvetica,sans-Serif" font-size="10.00">Products.ScifiCars.Propulsion.</text>
<text text-anchor="middle" x="259.5" y="-7.5" font-family="Helvetica,sans-Serif" font-size="10.00">Exotic.JetEngine</text>
</a>
</g>
</g>
<!-- Node0&#45;&gt;Node4 -->
<g id="edge4" class="edge"><title>Node0&#45;&gt;Node4</title>
<path fill="none" stroke="midnightblue" d="M117.058,-69.2858C137.373,-60.1498 162.284,-49.3237 185,-40.5 193.795,-37.0839 203.275,-33.6667 212.409,-30.5045"/>
<polygon fill="midnightblue" stroke="midnightblue" points="115.446,-66.1732 107.778,-73.4846 118.332,-72.5507 115.446,-66.1732"/>
</g>
</g>
</svg>
