<?xml version="1.0" encoding="UTF-8" standalone="no"?>
<!DOCTYPE svg PUBLIC "-//W3C//DTD SVG 1.1//EN"
 "http://www.w3.org/Graphics/SVG/1.1/DTD/svg11.dtd">
<!-- Generated by graphviz version 2.38.0 (20140413.2041)
 -->
<!-- Title: Graphical Class Hierarchy Pages: 1 -->
<svg width="306pt" height="78pt"
 viewBox="0.00 0.00 306.00 77.50" xmlns="http://www.w3.org/2000/svg" xmlns:xlink="http://www.w3.org/1999/xlink">
<g id="graph0" class="graph" transform="scale(1 1) rotate(0) translate(4 73.5)">
<title>Graphical Class Hierarchy</title>
<polygon fill="white" stroke="none" points="-4,4 -4,-73.5 302,-73.5 302,4 -4,4"/>
<!-- Node0 -->
<g id="node1" class="node"><title>Node0</title>
<g id="a_node1"><a xlink:href="class_products_1_1_pizzas_1_1_pizza.html" target="_top" xlink:title=" ">
<polygon fill="white" stroke="black" points="0,-22.5 0,-41.5 116,-41.5 116,-22.5 0,-22.5"/>
<text text-anchor="middle" x="58" y="-29.5" font-family="Helvetica,sans-Serif" font-size="10.00">Products.Pizzas.Pizza</text>
</a>
</g>
</g>
<!-- Node1 -->
<g id="node2" class="node"><title>Node1</title>
<g id="a_node2"><a xlink:href="class_products_1_1_pizzas_1_1_margherita_pizza.html" target="_top" xlink:title=" ">
<polygon fill="white" stroke="black" points="156.5,-39 156.5,-69 293.5,-69 293.5,-39 156.5,-39"/>
<text text-anchor="start" x="164.5" y="-57" font-family="Helvetica,sans-Serif" font-size="10.00">Products.Pizzas.Margherita</text>
<text text-anchor="middle" x="225" y="-46" font-family="Helvetica,sans-Serif" font-size="10.00">Pizza</text>
</a>
</g>
</g>
<!-- Node0&#45;&gt;Node1 -->
<g id="edge1" class="edge"><title>Node0&#45;&gt;Node1</title>
<path fill="none" stroke="midnightblue" d="M126.411,-40.9881C136.292,-42.3056 146.473,-43.663 156.359,-44.9812"/>
<polygon fill="midnightblue" stroke="midnightblue" points="126.621,-37.4852 116.246,-39.6328 125.696,-44.4238 126.621,-37.4852"/>
</g>
<!-- Node2 -->
<g id="node3" class="node"><title>Node2</title>
<g id="a_node3"><a xlink:href="class_products_1_1_pizzas_1_1_salami_pizza.html" target="_top" xlink:title=" ">
<polygon fill="white" stroke="black" points="152,-0.5 152,-19.5 298,-19.5 298,-0.5 152,-0.5"/>
<text text-anchor="middle" x="225" y="-7.5" font-family="Helvetica,sans-Serif" font-size="10.00">Products.Pizzas.SalamiPizza</text>
</a>
</g>
</g>
<!-- Node0&#45;&gt;Node2 -->
<g id="edge2" class="edge"><title>Node0&#45;&gt;Node2</title>
<path fill="none" stroke="midnightblue" d="M126.296,-23.0272C134.969,-21.8709 143.873,-20.6836 152.609,-19.5188"/>
<polygon fill="midnightblue" stroke="midnightblue" points="125.696,-19.5762 116.246,-24.3672 126.621,-26.5148 125.696,-19.5762"/>
</g>
</g>
</svg>
