<?xml version="1.0" encoding="UTF-8" standalone="no"?>
<!DOCTYPE svg PUBLIC "-//W3C//DTD SVG 1.1//EN"
 "http://www.w3.org/Graphics/SVG/1.1/DTD/svg11.dtd">
<!-- Generated by graphviz version 2.38.0 (20140413.2041)
 -->
<!-- Title: Graphical Class Hierarchy Pages: 1 -->
<svg width="305pt" height="186pt"
 viewBox="0.00 0.00 305.00 186.00" xmlns="http://www.w3.org/2000/svg" xmlns:xlink="http://www.w3.org/1999/xlink">
<g id="graph0" class="graph" transform="scale(1 1) rotate(0) translate(4 182)">
<title>Graphical Class Hierarchy</title>
<polygon fill="white" stroke="none" points="-4,4 -4,-182 301,-182 301,4 -4,4"/>
<!-- Node0 -->
<g id="node1" class="node"><title>Node0</title>
<g id="a_node1"><a xlink:href="interface_factory_1_1_abstract_1_1_i_vehicle_factory.html" target="_top" xlink:title=" ">
<polygon fill="white" stroke="black" points="0,-73.5 0,-103.5 127,-103.5 127,-73.5 0,-73.5"/>
<text text-anchor="start" x="8" y="-91.5" font-family="Helvetica,sans-Serif" font-size="10.00">Factory.Abstract.IVehicle</text>
<text text-anchor="middle" x="63.5" y="-80.5" font-family="Helvetica,sans-Serif" font-size="10.00">Factory</text>
</a>
</g>
</g>
<!-- Node1 -->
<g id="node2" class="node"><title>Node1</title>
<g id="a_node2"><a xlink:href="class_factory_1_1_abstract_1_1_airplane_factory.html" target="_top" xlink:title=" ">
<polygon fill="white" stroke="black" points="166,-147.5 166,-177.5 294,-177.5 294,-147.5 166,-147.5"/>
<text text-anchor="start" x="174" y="-165.5" font-family="Helvetica,sans-Serif" font-size="10.00">Factory.Abstract.Airplane</text>
<text text-anchor="middle" x="230" y="-154.5" font-family="Helvetica,sans-Serif" font-size="10.00">Factory</text>
</a>
</g>
</g>
<!-- Node0&#45;&gt;Node1 -->
<g id="edge1" class="edge"><title>Node0&#45;&gt;Node1</title>
<path fill="none" stroke="midnightblue" d="M100.989,-108.352C119.341,-117.994 142.079,-129.426 163,-138.5 170.159,-141.605 177.863,-144.658 185.393,-147.49"/>
<polygon fill="midnightblue" stroke="midnightblue" points="102.567,-105.227 92.0922,-103.638 99.29,-111.413 102.567,-105.227"/>
</g>
<!-- Node2 -->
<g id="node3" class="node"><title>Node2</title>
<g id="a_node3"><a xlink:href="class_factory_1_1_abstract_1_1_bicycle_factory.html" target="_top" xlink:title=" ">
<polygon fill="white" stroke="black" points="167.5,-98.5 167.5,-128.5 292.5,-128.5 292.5,-98.5 167.5,-98.5"/>
<text text-anchor="start" x="175.5" y="-116.5" font-family="Helvetica,sans-Serif" font-size="10.00">Factory.Abstract.Bicycle</text>
<text text-anchor="middle" x="230" y="-105.5" font-family="Helvetica,sans-Serif" font-size="10.00">Factory</text>
</a>
</g>
</g>
<!-- Node0&#45;&gt;Node2 -->
<g id="edge2" class="edge"><title>Node0&#45;&gt;Node2</title>
<path fill="none" stroke="midnightblue" d="M137.144,-99.5402C147.217,-101.071 157.484,-102.631 167.33,-104.128"/>
<polygon fill="midnightblue" stroke="midnightblue" points="137.572,-96.0651 127.16,-98.0227 136.52,-102.986 137.572,-96.0651"/>
</g>
<!-- Node3 -->
<g id="node4" class="node"><title>Node3</title>
<g id="a_node4"><a xlink:href="class_factory_1_1_abstract_1_1_flying_car_factory.html" target="_top" xlink:title=" ">
<polygon fill="white" stroke="black" points="163,-49.5 163,-79.5 297,-79.5 297,-49.5 163,-49.5"/>
<text text-anchor="start" x="171" y="-67.5" font-family="Helvetica,sans-Serif" font-size="10.00">Factory.Abstract.FlyingCar</text>
<text text-anchor="middle" x="230" y="-56.5" font-family="Helvetica,sans-Serif" font-size="10.00">Factory</text>
</a>
</g>
</g>
<!-- Node0&#45;&gt;Node3 -->
<g id="edge3" class="edge"><title>Node0&#45;&gt;Node3</title>
<path fill="none" stroke="midnightblue" d="M137.153,-77.9002C145.741,-76.6473 154.47,-75.3737 162.959,-74.1352"/>
<polygon fill="midnightblue" stroke="midnightblue" points="136.55,-74.4511 127.16,-79.3582 137.56,-81.3777 136.55,-74.4511"/>
</g>
<!-- Node4 -->
<g id="node5" class="node"><title>Node4</title>
<g id="a_node5"><a xlink:href="class_factory_1_1_abstract_1_1_lease_car_factory.html" target="_top" xlink:title=" ">
<polygon fill="white" stroke="black" points="163,-0.5 163,-30.5 297,-30.5 297,-0.5 163,-0.5"/>
<text text-anchor="start" x="171" y="-18.5" font-family="Helvetica,sans-Serif" font-size="10.00">Factory.Abstract.LeaseCar</text>
<text text-anchor="middle" x="230" y="-7.5" font-family="Helvetica,sans-Serif" font-size="10.00">Factory</text>
</a>
</g>
</g>
<!-- Node0&#45;&gt;Node4 -->
<g id="edge4" class="edge"><title>Node0&#45;&gt;Node4</title>
<path fill="none" stroke="midnightblue" d="M102.968,-68.7424C121.015,-59.7355 142.924,-49.1724 163,-40.5 170.874,-37.0987 179.376,-33.6883 187.575,-30.5281"/>
<polygon fill="midnightblue" stroke="midnightblue" points="101.277,-65.6751 93.9134,-73.2923 104.42,-71.9299 101.277,-65.6751"/>
</g>
</g>
</svg>
