<?xml version="1.0" encoding="UTF-8" standalone="no"?>
<!DOCTYPE svg PUBLIC "-//W3C//DTD SVG 1.1//EN"
 "http://www.w3.org/Graphics/SVG/1.1/DTD/svg11.dtd">
<!-- Generated by graphviz version 2.38.0 (20140413.2041)
 -->
<!-- Title: Factory.Abstract.IVehicleFactory Pages: 1 -->
<svg width="606pt" height="226pt"
 viewBox="0.00 0.00 606.00 226.00" xmlns="http://www.w3.org/2000/svg" xmlns:xlink="http://www.w3.org/1999/xlink">
<g id="graph0" class="graph" transform="scale(1 1) rotate(0) translate(4 222)">
<title>Factory.Abstract.IVehicleFactory</title>
<polygon fill="white" stroke="none" points="-4,4 -4,-222 602,-222 602,4 -4,4"/>
<!-- Node1 -->
<g id="node1" class="node"><title>Node1</title>
<g id="a_node1"><a xlink:title=" ">
<polygon fill="#bfbfbf" stroke="black" points="231,-127.5 231,-217.5 367,-217.5 367,-127.5 231,-127.5"/>
<text text-anchor="start" x="239" y="-205.5" font-family="Helvetica,sans-Serif" font-size="10.00">Factory.Abstract.IVehicle</text>
<text text-anchor="middle" x="299" y="-194.5" font-family="Helvetica,sans-Serif" font-size="10.00">Factory</text>
<polyline fill="none" stroke="black" points="231,-187.5 367,-187.5 "/>
<text text-anchor="middle" x="299" y="-175.5" font-family="Helvetica,sans-Serif" font-size="10.00"> </text>
<polyline fill="none" stroke="black" points="231,-168.5 367,-168.5 "/>
<text text-anchor="start" x="239" y="-156.5" font-family="Helvetica,sans-Serif" font-size="10.00">+ CreateJetPowered()</text>
<text text-anchor="start" x="239" y="-145.5" font-family="Helvetica,sans-Serif" font-size="10.00">+ CreatePeddlePowered()</text>
<text text-anchor="start" x="239" y="-134.5" font-family="Helvetica,sans-Serif" font-size="10.00">+ CreateGasolinePowered()</text>
</a>
</g>
</g>
<!-- Node2 -->
<g id="node2" class="node"><title>Node2</title>
<g id="a_node2"><a xlink:href="class_factory_1_1_abstract_1_1_airplane_factory.html" target="_top" xlink:title=" ">
<polygon fill="white" stroke="black" points="0,-0.5 0,-90.5 136,-90.5 136,-0.5 0,-0.5"/>
<text text-anchor="start" x="8" y="-78.5" font-family="Helvetica,sans-Serif" font-size="10.00">Factory.Abstract.Airplane</text>
<text text-anchor="middle" x="68" y="-67.5" font-family="Helvetica,sans-Serif" font-size="10.00">Factory</text>
<polyline fill="none" stroke="black" points="0,-60.5 136,-60.5 "/>
<text text-anchor="middle" x="68" y="-48.5" font-family="Helvetica,sans-Serif" font-size="10.00"> </text>
<polyline fill="none" stroke="black" points="0,-41.5 136,-41.5 "/>
<text text-anchor="start" x="8" y="-29.5" font-family="Helvetica,sans-Serif" font-size="10.00">+ CreateGasolinePowered()</text>
<text text-anchor="start" x="8" y="-18.5" font-family="Helvetica,sans-Serif" font-size="10.00">+ CreateJetPowered()</text>
<text text-anchor="start" x="8" y="-7.5" font-family="Helvetica,sans-Serif" font-size="10.00">+ CreatePeddlePowered()</text>
</a>
</g>
</g>
<!-- Node1&#45;&gt;Node2 -->
<g id="edge1" class="edge"><title>Node1&#45;&gt;Node2</title>
<path fill="none" stroke="midnightblue" d="M221.862,-131.992C197.189,-119.138 169.838,-104.661 145,-91 142.159,-89.4374 139.266,-87.8318 136.348,-86.2006"/>
<polygon fill="none" stroke="midnightblue" points="220.335,-135.143 230.822,-136.65 223.564,-128.932 220.335,-135.143"/>
</g>
<!-- Node3 -->
<g id="node3" class="node"><title>Node3</title>
<g id="a_node3"><a xlink:href="class_factory_1_1_abstract_1_1_bicycle_factory.html" target="_top" xlink:title=" ">
<polygon fill="white" stroke="black" points="154,-0.5 154,-90.5 290,-90.5 290,-0.5 154,-0.5"/>
<text text-anchor="start" x="162" y="-78.5" font-family="Helvetica,sans-Serif" font-size="10.00">Factory.Abstract.Bicycle</text>
<text text-anchor="middle" x="222" y="-67.5" font-family="Helvetica,sans-Serif" font-size="10.00">Factory</text>
<polyline fill="none" stroke="black" points="154,-60.5 290,-60.5 "/>
<text text-anchor="middle" x="222" y="-48.5" font-family="Helvetica,sans-Serif" font-size="10.00"> </text>
<polyline fill="none" stroke="black" points="154,-41.5 290,-41.5 "/>
<text text-anchor="start" x="162" y="-29.5" font-family="Helvetica,sans-Serif" font-size="10.00">+ CreateGasolinePowered()</text>
<text text-anchor="start" x="162" y="-18.5" font-family="Helvetica,sans-Serif" font-size="10.00">+ CreateJetPowered()</text>
<text text-anchor="start" x="162" y="-7.5" font-family="Helvetica,sans-Serif" font-size="10.00">+ CreatePeddlePowered()</text>
</a>
</g>
</g>
<!-- Node1&#45;&gt;Node3 -->
<g id="edge2" class="edge"><title>Node1&#45;&gt;Node3</title>
<path fill="none" stroke="midnightblue" d="M266.593,-118.891C260.79,-109.471 254.798,-99.7433 249.162,-90.5937"/>
<polygon fill="none" stroke="midnightblue" points="263.628,-120.751 271.853,-127.43 269.588,-117.08 263.628,-120.751"/>
</g>
<!-- Node4 -->
<g id="node4" class="node"><title>Node4</title>
<g id="a_node4"><a xlink:href="class_factory_1_1_abstract_1_1_flying_car_factory.html" target="_top" xlink:title=" ">
<polygon fill="white" stroke="black" points="308,-0.5 308,-90.5 444,-90.5 444,-0.5 308,-0.5"/>
<text text-anchor="start" x="316" y="-78.5" font-family="Helvetica,sans-Serif" font-size="10.00">Factory.Abstract.FlyingCar</text>
<text text-anchor="middle" x="376" y="-67.5" font-family="Helvetica,sans-Serif" font-size="10.00">Factory</text>
<polyline fill="none" stroke="black" points="308,-60.5 444,-60.5 "/>
<text text-anchor="middle" x="376" y="-48.5" font-family="Helvetica,sans-Serif" font-size="10.00"> </text>
<polyline fill="none" stroke="black" points="308,-41.5 444,-41.5 "/>
<text text-anchor="start" x="316" y="-29.5" font-family="Helvetica,sans-Serif" font-size="10.00">+ CreateGasolinePowered()</text>
<text text-anchor="start" x="316" y="-18.5" font-family="Helvetica,sans-Serif" font-size="10.00">+ CreateJetPowered()</text>
<text text-anchor="start" x="316" y="-7.5" font-family="Helvetica,sans-Serif" font-size="10.00">+ CreatePeddlePowered()</text>
</a>
</g>
</g>
<!-- Node1&#45;&gt;Node4 -->
<g id="edge3" class="edge"><title>Node1&#45;&gt;Node4</title>
<path fill="none" stroke="midnightblue" d="M331.407,-118.891C337.21,-109.471 343.202,-99.7433 348.838,-90.5937"/>
<polygon fill="none" stroke="midnightblue" points="328.412,-117.08 326.147,-127.43 334.372,-120.751 328.412,-117.08"/>
</g>
<!-- Node5 -->
<g id="node5" class="node"><title>Node5</title>
<g id="a_node5"><a xlink:href="class_factory_1_1_abstract_1_1_lease_car_factory.html" target="_top" xlink:title=" ">
<polygon fill="white" stroke="black" points="462,-0.5 462,-90.5 598,-90.5 598,-0.5 462,-0.5"/>
<text text-anchor="start" x="470" y="-78.5" font-family="Helvetica,sans-Serif" font-size="10.00">Factory.Abstract.LeaseCar</text>
<text text-anchor="middle" x="530" y="-67.5" font-family="Helvetica,sans-Serif" font-size="10.00">Factory</text>
<polyline fill="none" stroke="black" points="462,-60.5 598,-60.5 "/>
<text text-anchor="middle" x="530" y="-48.5" font-family="Helvetica,sans-Serif" font-size="10.00"> </text>
<polyline fill="none" stroke="black" points="462,-41.5 598,-41.5 "/>
<text text-anchor="start" x="470" y="-29.5" font-family="Helvetica,sans-Serif" font-size="10.00">+ CreateGasolinePowered()</text>
<text text-anchor="start" x="470" y="-18.5" font-family="Helvetica,sans-Serif" font-size="10.00">+ CreateJetPowered()</text>
<text text-anchor="start" x="470" y="-7.5" font-family="Helvetica,sans-Serif" font-size="10.00">+ CreatePeddlePowered()</text>
</a>
</g>
</g>
<!-- Node1&#45;&gt;Node5 -->
<g id="edge4" class="edge"><title>Node1&#45;&gt;Node5</title>
<path fill="none" stroke="midnightblue" d="M376.138,-131.992C400.811,-119.138 428.162,-104.661 453,-91 455.841,-89.4374 458.734,-87.8318 461.652,-86.2006"/>
<polygon fill="none" stroke="midnightblue" points="374.436,-128.932 367.178,-136.65 377.665,-135.143 374.436,-128.932"/>
</g>
</g>
</svg>
